<?xml version="1.0" standalone="no"?><!DOCTYPE svg PUBLIC "-//W3C//DTD SVG 1.1//EN" "http://www.w3.org/Graphics/SVG/1.1/DTD/svg11.dtd"><svg height="1000" node-id="1" sillyvg="true" template-height="1000" template-width="1285" version="1.1" viewBox="0 0 1285 1000" width="1285" xmlns="http://www.w3.org/2000/svg" xmlns:xlink="http://www.w3.org/1999/xlink"><defs node-id="27"></defs><path d="M 383.50 318.20 L 383.60 316.10 L 384.10 315.20 L 386.10 313.80 L 387.70 313.60 L 402.30 315.70 L 404.40 311.90 L 406.00 310.00 L 407.90 308.30 L 410.80 306.80 L 412.80 306.10 L 418.70 305.40 L 423.60 306.00 L 426.20 306.80 L 428.70 307.90 L 430.90 309.30 L 433.00 311.20 L 434.70 313.30 L 436.00 315.80 L 436.90 318.80 L 447.90 319.70 L 452.00 320.60 L 453.20 321.50 L 454.10 322.90 L 454.70 325.10 L 456.50 325.20 L 458.30 326.20 L 459.70 328.60 L 460.10 330.50 L 461.40 344.90 L 461.50 352.20 L 461.30 360.20 L 459.80 374.10 L 458.70 380.20 L 456.50 388.40 L 454.10 395.50 L 451.40 401.70 L 448.20 407.70 L 445.00 412.90 L 441.80 417.30 L 435.00 424.90 L 427.30 431.20 L 423.80 433.30 L 419.60 435.10 L 357.70 416.50 L 356.90 429.60 L 356.80 438.30 L 357.00 446.10 L 358.20 465.00 L 361.60 496.40 L 364.30 516.50 L 369.60 551.50 L 413.30 544.70 L 415.70 545.30 L 416.70 546.10 L 417.90 548.20 L 417.80 551.00 L 417.20 552.20 L 416.10 553.00 L 413.80 553.90 L 406.10 555.50 L 371.20 561.10 L 373.80 574.60 L 376.90 587.80 L 380.50 600.80 L 384.70 613.60 L 389.50 626.30 L 394.90 638.80 L 401.70 631.80 L 415.90 618.70 L 414.00 614.90 L 414.10 613.30 L 414.80 612.40 L 418.20 610.10 L 426.50 606.10 L 424.80 600.80 L 424.80 598.50 L 425.50 597.60 L 426.60 597.00 L 429.00 596.50 L 451.10 594.30 L 449.20 589.60 L 447.50 582.90 L 446.90 579.00 L 446.70 574.40 L 446.80 570.90 L 447.60 565.10 L 449.70 558.30 L 451.40 555.00 L 453.60 551.90 L 455.20 547.40 L 456.30 545.10 L 458.60 542.40 L 460.40 541.20 L 462.40 540.30 L 465.10 539.70 L 470.60 539.40 L 475.30 537.00 L 479.80 535.70 L 479.00 523.10 L 479.20 518.50 L 480.20 511.50 L 481.20 508.30 L 483.30 503.90 L 484.60 502.10 L 487.20 499.90 L 489.20 498.90 L 490.90 498.60 L 492.60 499.00 L 494.40 500.00 L 496.20 501.70 L 497.70 503.80 L 500.80 509.80 L 504.70 520.90 L 507.80 533.20 L 510.10 544.80 L 512.70 560.20 L 514.20 563.00 L 516.00 564.60 L 516.80 564.80 L 517.70 564.60 L 519.40 562.90 L 525.10 550.50 L 529.10 544.30 L 533.20 539.60 L 535.20 537.80 L 537.90 536.30 L 538.90 536.10 L 541.00 536.70 L 543.30 538.50 L 544.40 540.10 L 545.00 542.20 L 545.30 545.80 L 545.80 546.90 L 550.90 545.40 L 556.00 544.60 L 561.30 544.30 L 566.80 544.60 L 572.20 545.50 L 573.90 530.50 L 532.20 532.10 L 530.50 531.90 L 529.40 531.30 L 528.70 530.30 L 528.30 528.60 L 527.00 512.60 L 524.20 468.40 L 521.80 422.70 L 520.90 393.50 L 521.20 382.10 L 521.90 371.60 L 523.10 362.00 L 524.70 353.00 L 526.80 343.90 L 529.30 335.50 L 532.10 327.80 L 535.20 320.60 L 538.70 313.60 L 542.50 307.00 L 546.60 301.00 L 550.80 295.50 L 560.20 285.40 L 570.10 276.90 L 577.20 271.90 L 584.40 267.60 L 591.70 263.80 L 599.20 260.60 L 606.60 257.80 L 613.90 255.60 L 621.40 253.70 L 635.40 251.20 L 642.30 250.50 L 654.60 249.90 L 664.90 250.20 L 674.50 251.00 L 683.40 252.20 L 691.50 253.80 L 699.80 255.90 L 707.50 258.40 L 714.50 261.10 L 721.10 264.20 L 727.50 267.60 L 733.40 271.30 L 743.90 279.00 L 750.30 284.80 L 756.00 290.60 L 760.90 296.50 L 765.50 302.70 L 769.40 308.70 L 772.80 314.60 L 775.80 320.60 L 780.30 331.40 L 782.80 339.00 L 784.30 345.00 L 785.40 353.50 L 792.50 517.50 L 791.90 518.60 L 790.80 519.10 L 786.60 520.20 L 728.40 531.10 L 727.60 531.40 L 728.80 536.60 L 741.90 536.50 L 751.20 536.70 L 760.20 537.40 L 769.00 538.50 L 777.50 540.00 L 785.80 541.90 L 794.10 544.30 L 802.10 547.00 L 809.90 550.00 L 817.50 553.50 L 824.90 557.30 L 833.90 562.50 L 842.60 568.20 L 850.90 574.40 L 858.90 581.10 L 866.50 588.20 L 873.80 595.70 L 880.80 603.60 L 887.40 612.00 L 893.60 620.60 L 899.40 629.60 L 904.80 638.90 L 909.90 648.50 L 913.00 643.20 L 916.40 636.10 L 920.40 625.40 L 922.40 618.90 L 925.60 605.20 L 926.90 597.40 L 928.40 581.10 L 928.60 572.10 L 928.40 567.10 L 892.00 569.40 L 890.70 569.30 L 888.50 568.10 L 887.30 566.00 L 887.30 563.30 L 887.90 562.20 L 888.80 561.30 L 890.20 560.50 L 892.30 559.90 L 898.80 559.20 L 919.30 558.30 L 927.90 557.30 L 922.00 515.70 L 908.70 431.50 L 876.60 440.10 L 875.20 440.30 L 873.40 440.00 L 871.00 439.00 L 868.10 437.20 L 862.50 432.30 L 856.10 424.70 L 849.80 415.00 L 846.90 409.60 L 841.40 397.00 L 839.00 390.30 L 837.00 383.10 L 835.30 375.30 L 834.00 367.50 L 833.20 359.30 L 832.90 350.60 L 833.20 341.90 L 834.30 332.40 L 835.10 327.70 L 836.20 323.60 L 838.20 318.80 L 840.60 315.70 L 842.00 314.90 L 847.00 314.30 L 858.80 314.40 L 860.70 309.60 L 862.40 307.10 L 865.60 304.00 L 867.90 302.60 L 870.40 301.50 L 873.40 300.70 L 877.20 300.30 L 871.90 288.90 L 868.20 281.90 L 863.60 274.00 L 858.50 266.00 L 852.50 257.90 L 848.20 252.60 L 838.70 242.90 L 824.20 253.70 L 803.90 269.60 L 801.50 271.10 L 798.90 272.00 L 797.70 271.90 L 795.60 270.70 L 794.40 268.60 L 794.20 267.40 L 794.90 265.10 L 795.80 263.90 L 831.10 236.60 L 820.60 228.00 L 814.30 223.70 L 807.40 219.30 L 798.10 213.90 L 787.80 208.60 L 776.60 203.40 L 765.20 198.60 L 753.10 193.90 L 740.30 189.60 L 727.40 185.60 L 714.00 182.00 L 700.10 178.70 L 686.20 175.80 L 672.00 173.50 L 657.70 171.60 L 643.30 170.10 L 628.90 169.30 L 614.60 169.00 L 596.00 169.50 L 588.40 170.20 L 594.80 200.00 L 594.60 201.30 L 593.40 203.40 L 592.40 204.20 L 590.00 204.80 L 588.70 204.60 L 587.50 203.90 L 586.50 202.60 L 585.30 200.30 L 583.40 193.30 L 580.90 180.00 L 578.50 171.10 L 568.10 172.50 L 557.70 174.20 L 547.50 176.40 L 537.30 178.90 L 539.60 182.00 L 541.70 185.50 L 543.40 189.40 L 544.60 193.60 L 545.40 198.40 L 545.70 203.80 L 545.40 209.30 L 544.60 214.50 L 543.30 219.30 L 541.60 224.10 L 537.50 232.50 L 533.80 238.20 L 530.20 242.90 L 519.50 254.60 L 522.00 258.10 L 524.30 260.50 L 525.70 261.20 L 529.20 261.50 L 530.10 262.00 L 530.70 262.80 L 531.00 263.80 L 532.50 264.40 L 533.60 265.50 L 534.40 266.80 L 534.70 268.40 L 534.40 269.90 L 532.30 272.90 L 528.90 275.00 L 526.90 275.70 L 520.80 276.40 L 516.40 276.10 L 513.10 275.30 L 505.10 272.20 L 491.30 277.80 L 482.50 279.80 L 473.80 280.50 L 469.10 280.30 L 461.10 278.90 L 457.70 277.80 L 453.30 275.90 L 449.40 273.70 L 446.10 271.20 L 440.40 265.50 L 438.20 262.60 L 435.40 258.00 L 433.40 253.90 L 431.80 250.00 L 430.30 244.20 L 427.20 246.30 L 424.30 249.30 L 420.20 254.30 L 414.90 261.50 L 403.30 279.20 L 391.10 300.50 L 385.10 311.90 L 379.50 323.70 L 374.40 335.50 L 370.00 347.00 L 367.50 354.70 L 364.00 368.70 L 371.50 356.10 L 377.70 342.80 L 380.10 336.20 L 381.90 329.90 L 382.80 325.70 L 383.50 318.20 Z M 832.00 468.30 L 832.80 465.80 L 835.50 463.10 L 837.70 461.90 L 840.20 461.20 L 842.60 460.90 L 846.30 461.60 L 852.20 464.40 L 855.90 467.00 L 859.40 470.10 L 862.60 473.80 L 864.40 476.50 L 865.90 479.30 L 868.30 485.20 L 874.70 493.60 L 879.10 501.50 L 882.10 509.90 L 883.10 514.50 L 883.80 519.90 L 883.90 527.60 L 883.10 528.90 L 882.70 531.10 L 882.20 532.20 L 881.30 533.30 L 880.10 533.90 L 878.30 534.20 L 876.50 534.00 L 875.40 533.50 L 874.60 532.70 L 873.90 531.00 L 872.70 517.80 L 871.70 513.10 L 869.10 506.50 L 867.00 502.70 L 862.10 507.80 L 858.40 510.30 L 856.30 511.10 L 854.10 511.40 L 850.00 510.50 L 847.60 509.40 L 843.60 506.40 L 841.10 502.90 L 839.70 498.60 L 839.40 495.90 L 839.70 492.30 L 840.40 489.90 L 841.40 488.00 L 842.50 486.70 L 844.50 485.10 L 847.70 483.20 L 851.20 481.90 L 854.80 481.00 L 853.10 478.70 L 851.10 476.80 L 848.80 475.30 L 846.70 474.30 L 842.90 473.40 L 841.00 473.60 L 840.10 474.00 L 838.10 477.90 L 837.00 479.00 L 835.70 479.60 L 834.30 479.90 L 832.80 479.60 L 831.40 478.90 L 830.40 477.90 L 829.80 476.60 L 829.50 475.10 L 830.20 471.60 L 832.00 468.30 Z M 661.70 198.60 L 665.20 198.90 L 669.30 199.90 L 677.10 198.50 L 683.80 198.60 L 687.40 199.20 L 693.90 201.70 L 699.20 204.90 L 702.50 207.70 L 704.70 210.20 L 706.50 213.50 L 706.60 215.30 L 707.80 217.00 L 708.60 218.80 L 709.00 220.80 L 708.30 223.20 L 706.60 224.90 L 705.50 225.40 L 704.20 225.50 L 702.70 225.30 L 701.50 224.60 L 696.90 218.80 L 695.00 217.10 L 692.30 215.30 L 689.10 213.80 L 684.50 212.30 L 684.50 216.20 L 683.30 221.00 L 682.10 223.70 L 679.50 226.80 L 677.70 228.10 L 675.60 229.10 L 673.10 229.70 L 669.90 230.00 L 667.00 229.80 L 664.20 229.00 L 661.50 227.90 L 659.00 226.30 L 657.40 224.70 L 656.30 222.80 L 655.60 220.80 L 654.90 215.60 L 651.10 218.00 L 647.30 221.80 L 644.30 226.40 L 643.50 228.90 L 643.30 232.90 L 642.60 235.20 L 640.80 236.90 L 638.50 237.50 L 636.10 237.00 L 634.50 235.30 L 633.70 232.40 L 633.90 228.50 L 633.00 226.20 L 633.20 221.30 L 633.90 218.10 L 635.10 215.30 L 636.60 212.50 L 640.50 207.90 L 644.00 205.00 L 647.70 202.70 L 651.60 200.80 L 655.30 199.60 L 658.90 198.80 L 661.70 198.60 Z M 436.80 479.70 L 436.50 480.20 L 440.80 484.60 L 442.20 486.90 L 443.30 490.70 L 443.50 493.30 L 443.20 496.70 L 442.60 499.50 L 441.80 501.60 L 439.20 505.10 L 435.30 507.50 L 433.10 508.20 L 429.60 508.60 L 426.90 508.00 L 425.20 507.00 L 423.60 505.60 L 421.80 503.30 L 420.00 499.00 L 419.30 495.90 L 418.20 497.80 L 417.00 501.90 L 417.10 507.50 L 418.20 511.40 L 420.10 514.50 L 420.70 516.90 L 420.50 518.20 L 419.30 520.30 L 417.30 521.50 L 416.00 521.70 L 413.70 521.00 L 412.60 520.20 L 411.20 518.60 L 409.90 516.50 L 407.30 509.70 L 406.20 504.60 L 406.10 501.20 L 406.30 496.30 L 407.00 492.40 L 408.00 489.20 L 409.30 486.20 L 410.90 483.80 L 414.40 480.30 L 418.00 478.30 L 420.70 477.30 L 424.90 476.60 L 427.60 472.60 L 432.80 466.50 L 435.70 464.00 L 440.90 460.40 L 444.80 458.40 L 448.10 457.20 L 451.20 456.40 L 455.40 455.80 L 456.60 456.00 L 457.50 456.50 L 458.20 457.50 L 458.40 458.60 L 458.20 459.50 L 457.60 460.30 L 459.40 460.60 L 460.50 461.30 L 462.00 463.30 L 462.40 465.10 L 461.80 467.80 L 461.10 468.60 L 459.70 469.40 L 452.10 470.90 L 448.90 471.90 L 445.00 473.60 L 439.80 477.00 L 436.80 479.70 Z" fill="#0a369d" fill-rule="nonzero" node-id="29" stroke="none" target-height="479.5" target-width="571.8" target-x="356.8" target-y="169"></path><g node-id="66"><path d="M 533.80 585.80 L 555.90 583.70 L 557.40 584.60 L 560.70 589.50 L 563.90 596.30 L 568.50 607.70 L 573.20 621.00 L 578.90 639.20 L 580.60 641.50 L 584.70 644.00 L 590.00 646.10 L 597.30 648.30 L 623.80 655.30 L 643.10 661.20 L 652.20 664.70 L 658.10 667.40 L 663.30 670.30 L 668.10 673.30 L 668.00 668.00 L 668.90 666.30 L 670.20 665.20 L 674.80 663.00 L 678.30 662.10 L 683.50 661.20 L 689.30 660.70 L 697.40 660.50 L 713.70 661.20 L 728.10 663.10 L 737.50 665.00 L 746.00 667.20 L 753.80 669.70 L 768.20 675.40 L 783.00 682.90 L 801.00 693.90 L 800.30 677.00 L 800.50 670.30 L 801.80 656.80 L 803.50 646.70 L 805.60 637.30 L 808.00 628.30 L 810.40 620.80 L 813.00 614.00 L 815.10 609.40 L 816.80 606.60 L 818.00 605.40 L 818.70 605.10 L 819.80 605.30 L 821.10 606.70 L 821.30 607.70 L 813.60 628.50 L 811.20 636.70 L 809.10 645.50 L 807.40 655.60 L 806.00 670.00 L 805.70 677.90 L 806.00 685.60 L 807.00 697.30 L 809.70 700.40 L 825.10 714.70 L 829.60 719.50 L 833.80 724.60 L 838.60 731.80 L 840.40 735.50 L 841.90 739.30 L 842.80 743.00 L 843.00 748.40 L 841.80 752.60 L 840.80 754.80 L 839.40 756.70 L 836.20 758.90 L 832.80 759.60 L 830.20 759.40 L 825.50 757.90 L 823.40 756.60 L 820.70 754.50 L 818.30 752.00 L 816.00 748.90 L 813.10 743.90 L 810.60 738.30 L 808.50 732.50 L 805.30 720.80 L 802.40 703.20 L 801.80 702.20 L 798.70 699.40 L 794.80 696.40 L 788.70 692.20 L 781.70 688.10 L 766.70 680.50 L 752.10 674.90 L 744.40 672.50 L 736.10 670.30 L 727.10 668.40 L 718.10 667.10 L 708.50 666.20 L 698.50 665.90 L 689.80 666.10 L 678.90 667.30 L 673.70 668.60 L 673.70 675.50 L 675.70 720.00 L 676.60 730.10 L 677.20 733.30 L 678.00 735.10 L 679.10 736.50 L 680.50 737.40 L 687.30 740.70 L 691.00 743.10 L 694.90 746.20 L 729.90 780.90 L 752.10 801.60 L 767.80 815.00 L 778.00 822.80 L 786.80 828.90 L 787.40 830.60 L 786.80 831.80 L 785.50 832.10 L 783.00 831.80 L 779.80 830.70 L 775.90 828.70 L 768.00 823.30 L 763.20 819.50 L 748.40 806.30 L 708.20 766.90 L 693.30 753.10 L 682.40 744.50 L 674.00 739.50 L 673.00 738.60 L 672.30 737.60 L 671.80 735.80 L 671.00 725.50 L 665.20 729.40 L 661.40 731.50 L 657.20 733.40 L 648.50 736.00 L 640.60 736.70 L 628.20 735.90 L 621.40 735.70 L 618.10 736.00 L 614.90 736.70 L 611.80 737.80 L 608.90 739.40 L 609.30 760.00 L 609.00 768.70 L 608.20 777.40 L 605.20 794.50 L 604.00 797.00 L 603.00 797.70 L 599.60 798.40 L 472.70 809.20 L 468.00 809.60 L 466.60 809.50 L 465.30 808.50 L 464.80 807.30 L 463.60 799.60 L 462.50 796.00 L 460.40 791.40 L 445.10 791.70 L 441.50 789.60 L 440.50 788.20 L 440.20 786.50 L 441.60 753.00 L 441.60 731.70 L 440.90 712.70 L 438.70 694.30 L 435.30 678.00 L 433.00 669.80 L 430.20 661.10 L 426.70 651.90 L 422.70 642.90 L 418.00 633.50 L 412.50 623.70 L 405.30 629.80 L 400.20 634.60 L 394.90 640.10 L 384.50 651.90 L 376.00 663.40 L 372.00 669.60 L 364.50 683.40 L 361.30 690.70 L 358.50 698.40 L 356.20 706.50 L 353.80 718.90 L 352.90 732.20 L 353.20 739.60 L 353.90 746.50 L 355.00 752.90 L 356.60 758.80 L 358.50 764.70 L 360.80 770.20 L 363.40 775.30 L 366.30 780.00 L 370.70 786.10 L 375.40 791.50 L 380.40 796.40 L 385.80 801.00 L 391.40 805.10 L 397.20 808.70 L 403.10 812.10 L 414.80 817.60 L 423.50 820.90 L 431.50 823.60 L 457.80 830.90 L 459.00 831.80 L 458.80 832.90 L 458.10 833.80 L 457.20 834.30 L 456.10 834.50 L 447.90 833.50 L 434.00 830.40 L 425.70 827.80 L 416.40 824.40 L 403.80 818.60 L 397.30 815.00 L 390.90 811.00 L 384.80 806.60 L 378.70 801.60 L 374.40 797.60 L 366.50 788.60 L 362.80 783.60 L 359.50 778.40 L 356.60 772.90 L 354.00 766.90 L 351.70 760.50 L 350.00 754.00 L 348.70 747.10 L 347.90 739.60 L 347.50 731.60 L 347.80 725.10 L 349.20 712.60 L 350.50 706.70 L 352.60 698.80 L 355.20 691.30 L 358.20 684.10 L 361.60 677.20 L 369.00 664.40 L 373.10 658.30 L 381.20 647.60 L 393.20 634.20 L 398.80 628.70 L 409.80 618.70 L 407.90 614.90 L 408.10 613.30 L 408.70 612.40 L 412.10 610.10 L 420.40 606.10 L 418.70 600.80 L 418.80 598.50 L 419.40 597.60 L 420.50 597.00 L 423.00 596.50 L 445.00 594.30 L 443.20 589.60 L 441.40 582.90 L 440.80 579.00 L 440.60 574.40 L 440.70 570.90 L 441.60 565.10 L 443.60 558.30 L 445.30 555.00 L 447.50 551.90 L 449.10 547.40 L 450.20 545.10 L 452.60 542.40 L 456.40 540.30 L 459.00 539.70 L 464.50 539.40 L 469.20 537.00 L 473.70 535.70 L 472.90 523.10 L 473.50 514.60 L 474.20 511.50 L 476.10 505.90 L 477.20 503.90 L 479.90 500.80 L 483.10 498.90 L 484.80 498.60 L 486.60 499.00 L 488.30 500.00 L 490.10 501.70 L 493.20 506.50 L 496.70 514.90 L 500.30 527.00 L 504.10 544.80 L 506.60 560.20 L 508.10 563.00 L 510.00 564.60 L 511.60 564.60 L 513.30 562.90 L 519.00 550.50 L 523.10 544.30 L 527.10 539.60 L 529.10 537.80 L 531.80 536.30 L 532.90 536.10 L 534.90 536.70 L 537.30 538.50 L 538.30 540.10 L 539.00 542.20 L 539.30 547.10 L 544.50 545.50 L 549.80 544.60 L 555.20 544.30 L 560.70 544.60 L 566.10 545.50 L 567.80 530.50 L 526.20 532.10 L 524.40 531.90 L 523.30 531.30 L 522.60 530.30 L 522.30 528.60 L 519.50 491.80 L 515.80 422.70 L 514.80 393.50 L 515.10 382.10 L 515.90 371.60 L 517.00 362.00 L 518.60 353.00 L 520.80 343.90 L 523.20 335.50 L 526.00 327.80 L 529.10 320.60 L 532.70 313.60 L 536.50 307.00 L 540.50 301.00 L 544.80 295.50 L 554.10 285.40 L 564.10 276.90 L 571.20 271.90 L 578.30 267.60 L 585.60 263.80 L 593.10 260.60 L 600.50 257.80 L 607.80 255.60 L 615.30 253.70 L 622.50 252.20 L 636.30 250.50 L 648.60 249.90 L 658.90 250.20 L 668.40 251.00 L 677.30 252.20 L 685.50 253.80 L 693.80 255.90 L 701.40 258.40 L 708.50 261.10 L 715.00 264.20 L 721.40 267.60 L 732.90 275.10 L 737.90 279.00 L 744.30 284.80 L 749.90 290.60 L 754.90 296.50 L 759.40 302.70 L 763.40 308.70 L 766.70 314.60 L 772.30 326.20 L 776.70 339.00 L 778.20 345.00 L 779.40 353.50 L 786.50 516.60 L 786.30 517.80 L 785.80 518.60 L 784.90 519.10 L 783.30 519.60 L 722.30 531.10 L 721.50 531.40 L 722.70 536.60 L 735.90 536.50 L 746.20 536.80 L 756.30 537.60 L 766.00 539.00 L 775.40 540.80 L 784.60 543.20 L 793.70 546.10 L 802.50 549.50 L 811.10 553.30 L 819.30 557.50 L 827.40 562.20 L 835.10 567.20 L 842.60 572.70 L 849.90 578.50 L 856.80 584.70 L 863.60 591.30 L 870.00 598.10 L 876.10 605.30 L 881.90 612.70 L 887.40 620.50 L 892.70 628.60 L 898.80 638.90 L 904.40 649.60 L 909.50 660.70 L 914.20 672.10 L 918.30 683.70 L 921.90 695.50 L 924.90 707.50 L 927.50 719.80 L 929.50 732.10 L 930.90 744.50 L 931.70 757.10 L 932.00 769.70 L 931.90 771.50 L 931.20 773.10 L 930.50 773.60 L 929.40 773.80 L 928.70 772.20 L 924.50 743.70 L 919.90 718.60 L 916.50 704.10 L 910.90 684.20 L 903.50 663.20 L 899.10 652.70 L 894.10 642.10 L 888.60 631.70 L 882.60 621.50 L 875.90 611.60 L 870.40 604.40 L 864.60 597.40 L 858.40 590.70 L 851.80 584.20 L 844.80 578.10 L 837.40 572.40 L 829.40 567.10 L 821.00 562.10 L 814.10 558.50 L 806.80 555.20 L 799.20 552.30 L 791.10 549.60 L 782.60 547.30 L 774.30 545.40 L 765.40 543.90 L 756.10 542.80 L 746.30 542.10 L 735.90 541.90 L 723.90 542.20 L 723.00 548.40 L 721.90 554.10 L 720.40 559.40 L 718.60 564.20 L 716.50 568.90 L 711.50 577.30 L 708.70 580.90 L 704.50 585.50 L 700.20 589.60 L 695.60 593.10 L 690.70 596.30 L 680.90 601.50 L 675.80 603.50 L 666.10 606.60 L 658.90 608.20 L 652.70 609.10 L 642.20 609.90 L 635.00 609.60 L 628.40 608.90 L 622.40 607.90 L 616.90 606.60 L 611.40 604.80 L 606.40 602.80 L 597.80 598.20 L 592.50 594.50 L 587.90 590.60 L 583.90 586.70 L 577.10 578.20 L 574.40 574.10 L 571.00 567.90 L 568.60 562.50 L 564.40 550.70 L 559.70 549.90 L 554.90 549.60 L 551.20 549.80 L 544.00 551.20 L 540.50 552.50 L 539.20 553.40 L 537.70 556.50 L 536.00 563.60 L 534.50 576.30 L 533.80 585.80 Z M 584.30 311.70 L 578.50 316.10 L 572.80 321.00 L 567.20 326.50 L 561.90 332.30 L 556.80 338.50 L 552.10 345.00 L 547.60 351.90 L 543.60 358.90 L 540.00 366.20 L 536.80 373.60 L 534.20 381.10 L 532.10 388.60 L 530.50 396.30 L 529.50 403.80 L 529.20 411.20 L 529.40 416.20 L 530.00 421.10 L 531.80 428.80 L 532.10 429.80 L 533.00 430.80 L 543.20 433.80 L 549.30 434.90 L 555.50 435.60 L 568.60 435.80 L 570.80 436.20 L 572.10 436.80 L 573.00 437.60 L 573.60 438.90 L 574.70 443.20 L 576.70 455.40 L 577.60 465.90 L 577.70 471.30 L 577.50 482.00 L 576.30 502.40 L 571.50 544.70 L 571.30 547.10 L 571.60 548.50 L 572.40 550.20 L 576.20 554.30 L 582.50 558.90 L 590.70 563.10 L 596.10 565.20 L 607.70 568.60 L 614.60 570.00 L 621.60 571.00 L 629.40 571.70 L 637.90 571.90 L 646.00 571.70 L 660.30 570.40 L 666.60 569.40 L 675.10 567.40 L 682.40 565.30 L 688.80 562.80 L 695.10 559.90 L 700.30 557.10 L 704.70 554.20 L 708.80 550.90 L 711.90 547.90 L 714.10 545.20 L 716.00 542.20 L 717.00 539.80 L 717.30 537.80 L 712.90 515.00 L 711.40 504.50 L 709.30 481.50 L 708.60 458.50 L 708.70 450.40 L 709.70 434.30 L 710.10 432.70 L 711.00 431.40 L 712.40 430.40 L 717.20 428.80 L 725.90 427.30 L 725.40 418.70 L 725.50 417.60 L 726.10 416.70 L 727.00 416.00 L 729.10 416.00 L 730.20 417.10 L 731.00 420.40 L 731.30 425.10 L 733.30 423.70 L 736.60 420.40 L 739.70 415.60 L 740.90 412.70 L 741.60 409.40 L 747.40 357.40 L 748.80 342.80 L 748.50 338.30 L 747.80 335.00 L 746.70 332.60 L 745.20 330.50 L 743.30 329.00 L 741.00 328.00 L 738.50 327.30 L 732.30 326.90 L 729.70 327.10 L 727.40 327.70 L 725.40 328.70 L 723.50 330.10 L 721.30 332.30 L 719.30 335.10 L 717.50 338.40 L 715.50 343.70 L 713.80 349.70 L 712.40 355.90 L 709.80 373.40 L 708.10 381.70 L 707.30 383.70 L 706.50 384.60 L 705.70 384.90 L 703.90 384.80 L 701.10 383.70 L 699.60 382.50 L 691.90 373.80 L 688.00 370.10 L 684.20 367.20 L 680.00 364.80 L 675.90 362.90 L 671.70 361.50 L 665.20 359.90 L 644.80 356.90 L 637.80 355.60 L 630.50 353.50 L 625.70 351.80 L 620.70 349.40 L 615.60 346.40 L 610.70 343.00 L 605.60 338.60 L 600.20 333.20 L 592.60 324.00 L 584.30 311.70 Z M 586.30 779.30 L 588.20 767.90 L 589.30 755.90 L 589.20 737.90 L 588.60 726.10 L 588.00 725.30 L 582.50 722.80 L 580.60 721.60 L 578.70 719.90 L 576.60 716.80 L 575.10 713.60 L 569.10 709.10 L 567.70 707.60 L 566.60 705.10 L 566.40 703.50 L 567.10 700.20 L 569.80 695.20 L 580.50 680.90 L 581.80 678.70 L 582.10 677.30 L 579.10 661.90 L 575.20 645.80 L 569.70 626.90 L 566.40 617.10 L 562.70 607.40 L 559.90 601.00 L 553.90 589.30 L 424.50 601.70 L 433.40 632.10 L 439.00 654.90 L 441.70 668.00 L 444.00 681.60 L 445.80 696.20 L 447.20 716.10 L 447.40 726.30 L 445.80 786.30 L 586.30 779.30 Z M 590.20 720.40 L 597.00 712.60 L 602.20 708.40 L 607.50 705.80 L 610.40 704.90 L 613.80 704.30 L 617.70 704.10 L 621.30 704.30 L 625.70 705.10 L 626.90 706.50 L 627.00 707.40 L 626.80 708.50 L 626.20 709.40 L 625.20 710.00 L 624.10 710.10 L 617.50 709.40 L 614.50 709.60 L 609.90 710.50 L 606.80 711.80 L 604.20 713.50 L 601.90 715.60 L 594.50 723.90 L 594.20 725.00 L 596.10 730.70 L 597.30 732.60 L 599.60 734.40 L 602.40 734.90 L 605.30 734.60 L 613.10 731.60 L 616.00 730.80 L 619.70 730.40 L 640.90 731.30 L 647.80 730.60 L 651.30 729.70 L 656.40 727.90 L 660.90 725.70 L 665.00 723.20 L 667.90 721.00 L 669.50 719.20 L 670.60 716.90 L 670.60 693.80 L 669.60 686.00 L 667.70 681.20 L 666.20 679.10 L 664.30 677.10 L 659.30 673.50 L 651.70 670.00 L 635.70 664.60 L 581.60 648.80 L 586.80 672.40 L 590.10 669.40 L 593.60 667.10 L 599.00 665.60 L 607.90 665.00 L 611.70 665.20 L 624.40 666.60 L 625.70 667.00 L 626.70 668.10 L 626.40 670.20 L 625.20 671.10 L 623.90 671.30 L 609.00 670.40 L 604.50 670.50 L 598.80 671.10 L 595.80 671.90 L 594.10 673.10 L 588.90 678.90 L 577.50 693.40 L 573.50 699.50 L 571.90 703.10 L 572.20 704.40 L 573.10 705.60 L 576.80 708.00 L 580.40 702.60 L 583.70 698.30 L 586.70 695.00 L 590.10 691.90 L 595.90 688.00 L 601.60 685.70 L 607.60 684.80 L 617.50 685.00 L 619.60 685.50 L 620.60 686.00 L 621.20 686.70 L 621.20 688.60 L 620.30 689.50 L 619.40 689.80 L 608.40 690.00 L 604.70 690.50 L 601.50 691.30 L 598.40 692.70 L 595.50 694.60 L 586.50 703.50 L 584.40 706.00 L 581.70 710.10 L 581.00 712.80 L 581.40 714.40 L 582.30 715.90 L 583.60 717.10 L 585.20 718.20 L 590.20 720.40 Z M 533.60 544.60 L 533.40 542.40 L 529.40 545.50 L 527.80 547.60 L 525.60 551.10 L 520.20 562.50 L 518.30 565.90 L 516.30 568.40 L 514.70 569.70 L 512.90 570.50 L 510.90 570.80 L 509.30 570.50 L 507.70 569.90 L 506.30 568.80 L 503.40 564.70 L 501.90 561.60 L 498.80 551.60 L 493.40 523.80 L 490.60 512.20 L 489.00 508.30 L 488.00 506.60 L 487.00 505.50 L 484.90 504.70 L 482.90 506.30 L 481.70 508.10 L 480.70 510.30 L 479.70 513.80 L 479.10 517.80 L 478.90 523.50 L 479.10 529.10 L 480.50 538.90 L 482.30 545.80 L 488.70 565.80 L 489.50 571.30 L 489.10 574.90 L 488.50 576.70 L 487.50 578.40 L 485.30 580.20 L 478.10 582.60 L 475.80 583.00 L 471.20 582.50 L 468.70 583.10 L 465.20 583.00 L 462.70 582.40 L 460.10 581.40 L 457.20 579.50 L 453.70 575.90 L 450.60 570.40 L 449.40 566.90 L 448.30 562.60 L 447.30 566.20 L 446.70 569.80 L 446.70 577.00 L 447.70 584.00 L 450.00 590.80 L 451.60 593.70 L 527.60 586.40 L 529.30 571.20 L 530.70 561.40 L 533.40 548.60 L 533.60 544.60 Z M 837.70 746.40 L 837.40 743.70 L 835.70 738.30 L 834.00 734.90 L 831.20 730.40 L 827.80 725.70 L 822.70 719.80 L 816.80 713.80 L 808.70 706.70 L 808.20 706.80 L 809.80 715.60 L 813.20 728.80 L 817.20 739.10 L 821.20 746.00 L 824.90 750.30 L 827.70 752.50 L 829.80 753.50 L 832.70 754.20 L 834.80 753.60 L 836.60 751.30 L 837.20 749.70 L 837.70 746.40 Z M 475.00 541.40 L 471.50 541.80 L 470.30 542.40 L 469.40 543.50 L 469.00 545.10 L 468.90 554.50 L 469.40 560.10 L 470.90 568.80 L 472.70 574.10 L 473.90 576.10 L 475.40 577.20 L 482.10 575.10 L 483.10 574.40 L 483.80 573.60 L 484.00 572.30 L 483.90 569.70 L 483.10 565.70 L 478.10 551.90 L 475.00 541.40 Z M 466.20 577.10 L 467.20 577.00 L 465.50 571.80 L 464.30 566.50 L 463.20 555.80 L 462.80 545.00 L 460.00 545.10 L 457.20 546.10 L 455.90 547.00 L 454.80 548.60 L 453.90 551.30 L 453.80 553.30 L 454.40 561.30 L 454.80 564.50 L 455.60 567.50 L 456.60 569.90 L 457.90 571.90 L 459.50 573.70 L 462.50 575.90 L 464.80 576.90 L 466.20 577.10 Z" fill="#000000" fill-rule="nonzero" group-id="1" node-id="32" stroke="none" target-height="584.6" target-width="584.5" target-x="347.5" target-y="249.9"></path><path d="M 848.30 314.40 L 852.70 314.40 L 854.00 310.90 L 856.50 307.00 L 858.40 304.90 L 860.70 303.20 L 863.80 301.70 L 866.10 301.00 L 872.00 300.30 L 875.00 300.50 L 877.90 301.00 L 880.60 302.00 L 883.10 303.30 L 885.40 305.00 L 887.50 307.10 L 889.30 309.40 L 890.60 311.90 L 891.70 314.80 L 904.80 314.90 L 906.70 315.80 L 907.30 316.70 L 907.50 318.20 L 907.30 321.50 L 908.00 333.70 L 909.90 344.30 L 911.90 351.10 L 914.10 357.20 L 916.70 362.70 L 919.70 368.10 L 926.10 377.20 L 933.00 385.00 L 941.30 392.40 L 955.10 402.40 L 953.80 403.60 L 947.40 406.50 L 927.90 413.70 L 896.40 424.10 L 869.20 432.70 L 865.50 430.30 L 858.30 423.40 L 854.20 418.40 L 849.50 411.80 L 846.50 407.00 L 840.80 395.60 L 838.30 389.40 L 836.10 382.50 L 834.20 374.90 L 832.80 367.20 L 831.90 358.80 L 831.60 349.60 L 831.80 342.20 L 832.50 334.80 L 833.50 327.40 L 835.80 315.90 L 836.60 315.10 L 837.90 314.60 L 848.30 314.40 Z M 837.90 349.40 L 838.40 360.00 L 840.30 372.60 L 843.50 385.00 L 847.60 395.60 L 850.20 400.90 L 853.20 406.20 L 856.80 411.40 L 860.70 416.40 L 865.20 421.20 L 870.40 425.90 L 942.70 401.90 L 942.10 401.10 L 933.10 394.30 L 928.90 390.60 L 924.10 385.40 L 917.80 376.80 L 914.50 371.10 L 911.70 365.20 L 908.90 358.30 L 906.20 350.10 L 903.10 337.20 L 900.80 321.10 L 841.70 320.70 L 840.60 324.10 L 839.40 330.80 L 838.30 339.50 L 837.90 349.20 Z M 884.90 314.60 L 882.90 311.30 L 881.60 310.00 L 879.20 308.50 L 876.70 307.50 L 871.80 306.70 L 866.80 307.40 L 864.90 308.20 L 862.50 309.70 L 860.90 311.30 L 859.90 313.00 L 859.70 314.60 Z" fill="#000000" fill-rule="nonzero" group-id="1" node-id="34" stroke="none" target-height="132.40002" target-width="123.5" target-x="831.6" target-y="300.3"></path><path d="M 381.80 313.60 L 396.20 315.70 L 398.40 311.90 L 399.90 310.00 L 401.90 308.30 L 404.70 306.80 L 409.40 305.60 L 415.00 305.50 L 420.10 306.80 L 422.60 307.90 L 424.90 309.30 L 427.00 311.20 L 428.70 313.30 L 429.90 315.80 L 430.80 318.80 L 443.00 319.80 L 445.10 320.30 L 447.20 321.60 L 447.90 322.70 L 448.60 324.80 L 449.00 328.20 L 449.20 338.50 L 448.90 348.10 L 448.00 357.00 L 446.70 365.10 L 444.90 373.20 L 442.70 380.50 L 440.40 387.00 L 434.80 399.10 L 432.00 404.10 L 427.50 411.10 L 423.50 416.30 L 419.50 420.80 L 416.50 423.70 L 412.90 426.10 L 386.70 418.40 L 356.40 408.80 L 337.70 402.20 L 331.50 399.40 L 330.40 398.20 L 330.50 397.20 L 331.60 395.70 L 335.10 393.80 L 338.10 391.70 L 341.40 388.80 L 346.20 384.00 L 351.30 377.90 L 356.20 371.20 L 361.00 363.80 L 365.40 356.10 L 369.40 348.10 L 373.60 337.50 L 376.40 327.30 L 377.10 322.50 L 377.60 316.10 L 378.70 314.50 L 380.10 313.80 L 381.80 313.60 Z M 383.20 320.60 L 381.20 332.20 L 378.80 342.50 L 377.10 347.50 L 374.80 352.90 L 372.00 358.30 L 368.10 364.60 L 363.50 371.00 L 357.40 378.90 L 341.40 397.30 L 411.40 419.10 L 412.60 418.70 L 413.50 417.90 L 426.00 401.40 L 432.30 390.70 L 436.70 380.20 L 438.50 374.50 L 440.00 368.00 L 441.30 360.60 L 442.20 353.20 L 442.80 344.50 L 443.10 334.60 L 442.70 326.40 Z M 423.90 318.20 L 423.00 316.30 L 421.60 314.80 L 419.60 313.50 L 417.50 312.50 L 415.00 312.00 L 412.20 311.70 L 408.30 312.30 L 405.30 313.80 L 403.30 316.20 Z" fill="#000000" fill-rule="nonzero" group-id="1" node-id="36" stroke="none" target-height="120.600006" target-width="118.80002" target-x="330.4" target-y="305.5"></path><path d="M 513.40 254.60 L 515.90 258.10 L 518.30 260.50 L 519.60 261.20 L 523.20 261.50 L 524.10 262.10 L 524.70 263.00 L 525.00 264.00 L 524.10 265.80 L 521.00 267.50 L 516.20 268.60 L 511.20 268.60 L 507.00 267.50 L 500.60 264.40 L 499.00 264.10 L 485.00 269.20 L 480.00 270.40 L 472.60 271.40 L 468.20 271.60 L 463.20 271.30 L 457.80 270.40 L 454.20 269.40 L 447.20 266.40 L 443.80 264.40 L 440.70 262.00 L 437.80 259.10 L 435.20 256.00 L 433.00 252.30 L 431.10 248.10 L 429.20 241.20 L 428.50 232.80 L 428.80 227.50 L 429.70 222.30 L 431.30 216.90 L 433.30 211.70 L 435.80 206.50 L 438.90 201.40 L 442.30 196.50 L 446.20 191.90 L 450.50 187.40 L 455.00 183.20 L 459.90 179.40 L 465.10 176.00 L 470.40 173.00 L 476.00 170.40 L 481.70 168.30 L 487.60 166.80 L 493.50 165.90 L 499.50 165.50 L 504.30 165.80 L 509.60 166.70 L 513.20 167.60 L 520.30 170.50 L 523.70 172.40 L 526.90 174.70 L 530.00 177.50 L 532.60 180.60 L 535.00 184.20 L 537.00 188.40 L 538.10 191.70 L 539.40 199.30 L 539.60 203.80 L 539.30 209.30 L 538.50 214.50 L 537.30 219.30 L 535.60 224.10 L 531.40 232.50 L 527.80 238.20 L 524.20 242.90 L 513.40 254.60 Z M 512.40 263.00 L 509.80 259.00 L 508.20 255.90 L 507.50 252.90 L 509.50 250.30 L 517.40 242.20 L 520.80 238.20 L 524.00 233.80 L 527.20 228.70 L 530.70 221.30 L 532.10 217.20 L 533.20 213.00 L 533.80 208.40 L 534.10 203.60 L 533.90 199.40 L 532.50 192.50 L 531.50 189.60 L 529.60 186.00 L 527.40 182.90 L 524.90 180.30 L 519.20 176.10 L 516.20 174.60 L 511.50 172.90 L 507.20 171.80 L 499.60 171.10 L 494.80 171.30 L 490.10 172.00 L 485.30 173.10 L 480.60 174.60 L 474.40 177.20 L 468.50 180.40 L 462.80 184.10 L 457.40 188.40 L 452.50 193.00 L 448.00 198.10 L 442.20 206.30 L 437.90 214.90 L 436.20 219.50 L 435.10 224.00 L 434.40 228.60 L 434.10 233.10 L 434.40 238.50 L 435.20 243.00 L 436.50 246.80 L 438.20 250.50 L 440.20 253.50 L 442.40 256.10 L 447.60 260.20 L 454.40 263.60 L 458.30 264.70 L 464.80 265.90 L 468.30 266.00 L 477.20 265.40 L 486.00 263.10 L 490.10 261.50 L 498.80 257.30 L 500.20 257.00 L 502.00 257.60 L 504.10 259.90 L 505.90 261.00 L 512.40 263.00 Z" fill="#000000" fill-rule="nonzero" group-id="1" node-id="38" stroke="none" target-height="106.100006" target-width="111.099976" target-x="428.5" target-y="165.5"></path><path d="M 854.90 482.10 L 852.70 477.90 L 848.50 473.30 L 845.70 470.90 L 840.20 467.60 L 836.50 466.30 L 833.70 466.80 L 831.60 468.20 L 830.80 471.00 L 829.30 472.10 L 827.60 471.80 L 826.70 471.00 L 826.20 469.70 L 826.00 468.30 L 826.20 467.00 L 827.70 464.60 L 829.40 463.10 L 831.70 461.90 L 834.10 461.20 L 836.60 460.90 L 840.40 461.60 L 846.50 464.60 L 850.40 467.40 L 855.00 472.00 L 858.90 477.50 L 862.10 484.90 L 870.10 495.90 L 872.50 500.40 L 875.20 507.20 L 877.20 515.70 L 878.00 526.10 L 877.40 528.50 L 876.20 529.40 L 875.30 529.60 L 874.10 529.40 L 873.30 528.90 L 872.80 528.10 L 872.40 526.40 L 871.40 515.80 L 870.60 511.50 L 869.40 507.50 L 866.30 500.60 L 863.30 495.80 L 861.40 493.60 L 859.50 497.10 L 855.90 501.60 L 853.90 503.20 L 850.70 504.90 L 847.20 505.60 L 845.10 505.30 L 842.30 504.00 L 841.00 502.90 L 839.90 501.30 L 839.20 499.30 L 838.90 496.60 L 839.10 494.40 L 839.60 492.30 L 841.50 488.40 L 844.40 485.20 L 848.10 483.00 L 850.20 482.40 L 854.90 482.10 Z M 856.30 488.70 L 854.50 488.00 L 852.50 487.80 L 849.60 488.40 L 846.90 490.60 L 845.70 492.50 L 845.00 494.60 L 844.80 497.90 L 845.40 499.40 L 846.90 499.90 L 848.80 499.60 L 850.90 498.50 L 852.80 496.90 L 854.60 494.60 L 856.00 490.90 L 856.30 488.70 Z" fill="#000000" fill-rule="nonzero" group-id="1" node-id="40" stroke="none" target-height="68.69998" target-width="52" target-x="826" target-y="460.9"></path><path d="M 673.60 203.90 L 669.00 204.60 L 671.00 208.40 L 671.70 210.60 L 671.90 213.20 L 671.20 216.90 L 670.30 218.30 L 668.60 219.90 L 666.60 221.00 L 664.40 221.70 L 660.80 221.80 L 658.90 221.40 L 657.00 220.60 L 655.30 219.10 L 654.50 217.90 L 653.90 216.20 L 653.60 213.80 L 654.00 211.00 L 654.80 208.60 L 657.10 204.60 L 655.20 204.20 L 653.30 204.50 L 645.20 207.10 L 642.50 208.60 L 637.80 212.10 L 636.30 213.80 L 634.50 216.60 L 633.40 219.20 L 631.40 227.70 L 631.00 228.50 L 629.50 229.10 L 627.90 228.60 L 627.00 226.70 L 627.20 221.30 L 627.90 218.10 L 629.00 215.30 L 632.40 210.10 L 634.50 207.90 L 638.00 205.00 L 641.70 202.70 L 645.60 200.80 L 649.20 199.60 L 652.80 198.80 L 657.60 198.70 L 663.20 199.90 L 668.80 198.70 L 673.90 198.30 L 677.80 198.60 L 681.40 199.20 L 684.70 200.30 L 687.80 201.70 L 693.10 204.90 L 696.40 207.70 L 698.70 210.20 L 699.90 212.10 L 700.70 214.50 L 699.90 216.70 L 699.00 217.40 L 697.90 217.70 L 696.90 217.40 L 691.20 210.90 L 688.90 208.80 L 686.20 206.90 L 682.70 205.30 L 680.20 204.60 L 673.60 203.90 Z M 663.10 206.70 L 661.50 208.20 L 660.40 210.00 L 659.60 211.90 L 659.20 214.00 L 659.50 215.30 L 660.20 215.80 L 661.10 216.10 L 663.60 216.00 L 665.50 215.20 L 666.10 214.50 L 666.30 213.40 L 665.40 209.70 L 663.10 206.70 Z" fill="#000000" fill-rule="nonzero" group-id="1" node-id="42" stroke="none" target-height="30.800003" target-width="73.70001" target-x="627" target-y="198.3"></path><path d="M 418.90 476.60 L 421.50 472.60 L 426.80 466.50 L 429.60 464.00 L 434.90 460.40 L 438.80 458.40 L 442.10 457.20 L 445.20 456.40 L 449.40 455.80 L 450.50 456.00 L 451.50 456.50 L 452.10 457.50 L 452.30 458.60 L 452.10 459.60 L 451.50 460.40 L 450.40 461.10 L 442.20 463.30 L 436.10 465.80 L 431.20 469.30 L 428.90 471.60 L 426.70 474.50 L 424.50 478.20 L 428.60 481.40 L 430.10 483.50 L 431.40 487.10 L 431.60 489.50 L 431.40 491.70 L 430.20 495.00 L 428.80 497.00 L 427.10 498.40 L 423.80 500.00 L 421.60 500.40 L 419.80 500.20 L 418.20 499.40 L 416.80 498.10 L 415.80 496.40 L 415.10 494.20 L 414.80 491.40 L 415.30 486.90 L 416.40 482.60 L 413.10 484.00 L 411.30 485.10 L 409.50 486.90 L 407.50 490.20 L 406.00 494.90 L 405.40 501.70 L 405.60 505.20 L 405.90 507.10 L 407.30 511.30 L 406.50 512.90 L 404.90 513.60 L 403.70 513.30 L 402.60 512.30 L 401.50 510.30 L 400.20 505.20 L 400.00 501.20 L 400.30 496.30 L 400.90 492.40 L 401.90 489.20 L 403.30 486.20 L 404.80 483.80 L 408.30 480.30 L 411.90 478.30 L 414.60 477.30 L 418.90 476.60 Z M 420.50 491.10 L 420.70 492.90 L 421.20 494.70 L 423.30 494.00 L 424.70 493.00 L 425.70 490.90 L 425.90 489.40 L 425.70 487.60 L 424.90 486.00 L 423.70 484.60 L 422.10 483.70 L 420.60 489.20 L 420.50 491.10 Z" fill="#000000" fill-rule="nonzero" group-id="1" node-id="44" stroke="none" target-height="57.799988" target-width="52.299988" target-x="400" target-y="455.8"></path><path d="M 728.10 384.20 L 723.00 383.50 L 722.00 383.00 L 721.40 382.20 L 721.20 380.80 L 724.10 348.70 L 724.50 347.90 L 725.80 346.90 L 726.70 346.70 L 728.00 347.00 L 728.70 347.80 L 729.30 349.80 L 726.70 378.80 L 730.30 379.70 L 731.30 380.50 L 732.20 381.50 L 733.00 383.60 L 734.00 390.50 L 734.40 402.60 L 734.00 406.00 L 732.70 407.70 L 730.60 407.80 L 729.40 407.00 L 728.80 403.30 L 728.60 391.10 L 728.10 384.20 Z" fill="#000000" fill-rule="nonzero" group-id="1" node-id="46" stroke="none" target-height="61.099976" target-width="13.200012" target-x="721.2" target-y="346.7"></path><path d="M 626.20 443.10 L 621.50 442.20 L 619.30 440.80 L 618.60 439.10 L 618.80 438.10 L 619.40 437.30 L 620.20 436.70 L 621.20 436.50 L 626.70 437.60 L 628.70 437.40 L 630.50 436.60 L 632.10 435.30 L 633.70 433.30 L 634.80 431.00 L 636.60 425.80 L 637.70 424.70 L 638.70 424.60 L 639.70 424.70 L 641.00 426.00 L 641.20 427.00 L 641.00 429.40 L 640.30 432.10 L 639.10 434.80 L 637.40 437.30 L 635.30 439.60 L 632.70 441.40 L 628.60 442.90 L 626.20 443.10 Z" fill="#000000" fill-rule="nonzero" group-id="1" node-id="48" stroke="none" target-height="18.5" target-width="22.600037" target-x="618.6" target-y="424.6"></path><path d="M 597.40 354.50 L 599.50 355.10 L 601.30 355.90 L 601.90 356.70 L 602.10 357.80 L 601.40 359.60 L 599.70 360.40 L 597.60 360.10 L 596.20 360.30 L 593.60 361.60 L 590.00 364.80 L 586.60 370.00 L 585.20 371.10 L 583.40 371.10 L 582.50 370.50 L 581.70 368.70 L 582.80 366.10 L 585.80 361.60 L 588.00 359.20 L 590.70 357.00 L 594.90 355.00 L 597.40 354.50 Z" fill="#000000" fill-rule="nonzero" group-id="1" node-id="50" stroke="none" target-height="16.600006" target-width="20.399963" target-x="581.7" target-y="354.5"></path><path d="M 652.80 396.60 L 654.40 396.90 L 655.20 397.60 L 655.70 398.50 L 655.60 400.20 L 655.10 400.90 L 653.40 402.10 L 647.30 405.20 L 645.30 405.80 L 643.40 405.00 L 642.70 403.20 L 643.00 402.00 L 643.90 401.00 L 652.80 396.60 Z" fill="#000000" fill-rule="nonzero" group-id="1" node-id="52" stroke="none" target-height="9.199982" target-width="13" target-x="642.7" target-y="396.6"></path><path d="M 586.50 410.10 L 584.80 409.30 L 580.20 405.70 L 578.30 403.80 L 578.00 402.50 L 578.20 401.50 L 579.60 400.10 L 580.60 399.90 L 582.60 400.70 L 587.30 404.50 L 589.10 406.40 L 589.40 407.40 L 588.80 409.10 L 588.00 409.70 L 586.50 410.10 Z" fill="#000000" fill-rule="nonzero" group-id="1" node-id="54" stroke="none" target-height="10.200012" target-width="11.400024" target-x="578" target-y="399.9"></path><path d="M 597.00 383.20 L 597.50 380.70 L 598.70 379.60 L 599.70 379.40 L 600.80 379.60 L 602.20 381.00 L 602.50 382.00 L 603.30 388.60 L 603.10 389.60 L 602.60 390.60 L 601.70 391.10 L 600.60 391.30 L 599.40 391.10 L 598.70 390.40 L 597.70 387.70 L 597.00 383.20 Z" fill="#000000" fill-rule="nonzero" group-id="1" node-id="56" stroke="none" target-height="11.899994" target-width="6.299988" target-x="597" target-y="379.4"></path><path d="M 630.30 388.50 L 630.10 389.60 L 628.80 391.00 L 627.80 391.20 L 626.30 390.70 L 625.50 389.30 L 625.10 385.30 L 625.00 381.30 L 625.10 380.30 L 625.60 379.50 L 626.40 378.90 L 627.40 378.70 L 628.90 379.20 L 629.80 381.20 L 630.30 388.50 Z" fill="#000000" fill-rule="nonzero" group-id="1" node-id="58" stroke="none" target-height="12.5" target-width="5.299988" target-x="625" target-y="378.7"></path><path d="M 877.00 385.50 L 894.30 380.00 L 896.70 380.10 L 897.60 380.80 L 898.30 381.80 L 898.50 382.90 L 897.90 384.70 L 897.10 385.40 L 894.30 386.50 L 881.90 390.60 L 873.00 393.10 L 871.50 392.80 L 870.50 392.10 L 869.80 391.10 L 869.50 389.50 L 869.70 387.90 L 876.50 364.60 L 877.20 361.70 L 877.40 359.70 L 876.70 354.50 L 876.00 352.70 L 874.80 352.10 L 872.90 352.50 L 870.80 353.80 L 869.90 354.80 L 869.30 356.20 L 869.10 362.10 L 868.50 363.10 L 867.60 363.70 L 866.50 363.90 L 864.80 363.40 L 863.80 361.90 L 863.30 357.30 L 863.50 355.10 L 864.70 351.70 L 866.20 349.70 L 868.00 348.20 L 870.00 347.10 L 873.80 345.90 L 876.10 345.80 L 878.80 346.80 L 880.30 348.00 L 881.50 349.60 L 882.60 352.10 L 883.30 355.10 L 883.60 359.40 L 883.30 363.40 L 882.40 367.60 L 878.20 380.70 L 877.00 385.50 Z" fill="#000000" fill-rule="nonzero" group-id="1" node-id="60" stroke="none" target-height="47.30002" target-width="35.200012" target-x="863.3" target-y="345.8"></path><path d="M 402.10 376.30 L 408.90 377.80 L 410.10 378.40 L 410.90 379.30 L 411.10 380.60 L 410.90 381.90 L 410.20 382.90 L 409.10 383.60 L 407.90 383.80 L 394.50 381.50 L 388.10 380.20 L 386.10 379.50 L 385.20 378.90 L 384.70 378.10 L 384.80 375.70 L 385.40 374.70 L 386.40 374.10 L 387.70 373.80 L 395.60 375.10 L 399.80 364.60 L 403.60 353.90 L 401.60 353.90 L 400.60 353.70 L 399.70 353.10 L 398.90 351.20 L 399.20 350.20 L 399.70 349.40 L 403.90 346.40 L 407.10 344.40 L 409.20 343.50 L 410.60 343.90 L 411.30 344.50 L 411.70 345.30 L 412.00 346.70 L 409.40 355.60 L 402.10 376.30 Z" fill="#000000" fill-rule="nonzero" group-id="1" node-id="62" stroke="none" target-height="40.299988" target-width="27.299988" target-x="384.7" target-y="343.5"></path><path d="M 477.20 211.00 L 479.60 206.00 L 481.60 202.60 L 483.40 200.30 L 486.60 197.90 L 488.00 197.40 L 490.60 197.40 L 493.40 198.80 L 494.80 200.40 L 496.00 202.40 L 497.00 205.50 L 497.70 209.10 L 498.00 214.20 L 497.70 218.90 L 497.10 223.10 L 495.40 230.30 L 493.50 235.70 L 492.50 236.30 L 486.50 236.60 L 481.10 236.30 L 476.00 235.50 L 471.10 234.30 L 466.80 232.60 L 464.10 231.20 L 460.30 228.10 L 458.90 226.30 L 458.10 224.40 L 457.80 222.40 L 458.00 220.60 L 458.70 219.00 L 459.70 217.60 L 461.70 215.80 L 464.20 214.30 L 467.00 213.20 L 469.70 212.40 L 477.20 211.00 Z" fill="#000000" fill-rule="nonzero" group-id="1" node-id="64" stroke="none" target-height="39.200012" target-width="40.200012" target-x="457.8" target-y="197.4"></path></g></svg>