<?xml version="1.0" standalone="no"?><!DOCTYPE svg PUBLIC "-//W3C//DTD SVG 1.1//EN" "http://www.w3.org/Graphics/SVG/1.1/DTD/svg11.dtd"><svg height="1000" node-id="1" sillyvg="true" template-height="1000" template-width="1285" version="1.1" viewBox="0 0 1285 1000" width="1285" xmlns="http://www.w3.org/2000/svg" xmlns:xlink="http://www.w3.org/1999/xlink"><defs node-id="26"></defs><path d="M 742.80 421.00 L 743.00 421.70 L 747.60 418.00 L 742.80 421.00 Z" fill="#5fc690" fill-rule="nonzero" node-id="28" stroke="none" target-height="3.7000122" target-width="4.799988" target-x="742.8" target-y="418"></path><path d="M 864.80 426.60 L 865.00 427.80 L 865.60 428.70 L 866.70 429.40 L 868.60 430.00 L 871.40 430.20 L 875.70 429.90 L 880.30 428.90 L 889.30 425.70 L 888.20 415.50 L 885.40 414.80 L 882.40 414.60 L 877.50 415.20 L 872.30 417.40 L 869.70 419.20 L 867.60 421.20 L 866.10 423.10 L 865.10 425.10 L 864.80 426.60 Z" fill="#013592" fill-rule="nonzero" node-id="30" stroke="none" target-height="15.600006" target-width="24.5" target-x="864.8" target-y="414.6"></path><path d="M 371.60 394.30 L 366.80 395.00 L 364.80 395.80 L 362.10 397.30 L 360.10 399.10 L 357.30 402.90 L 356.40 405.50 L 357.00 407.20 L 359.00 408.40 L 364.10 409.30 L 373.40 407.50 L 374.30 407.00 L 375.20 405.60 L 375.80 404.00 L 376.70 400.10 L 376.70 397.00 L 376.30 395.90 L 375.10 394.80 L 371.60 394.30 Z" fill="#013592" fill-rule="nonzero" node-id="32" stroke="none" target-height="15" target-width="20.300018" target-x="356.4" target-y="394.3"></path><path d="M 370.00 414.70 L 361.60 414.80 L 357.40 414.10 L 355.30 413.30 L 353.50 412.10 L 351.90 410.50 L 351.20 409.20 L 350.50 405.60 L 350.70 403.80 L 352.10 399.80 L 354.80 396.10 L 358.70 392.60 L 363.60 390.00 L 369.20 388.50 L 374.30 388.40 L 377.80 389.50 L 379.60 390.70 L 381.20 392.40 L 382.50 395.70 L 382.70 398.00 L 382.00 404.50 L 386.00 402.80 L 392.40 399.30 L 396.50 396.30 L 406.40 387.60 L 407.50 387.20 L 408.50 387.40 L 409.70 388.70 L 409.90 389.60 L 409.60 391.00 L 408.70 392.30 L 405.50 395.90 L 399.70 401.20 L 395.40 404.30 L 391.80 406.50 L 380.20 411.80 L 378.40 413.10 L 372.50 421.40 L 364.70 430.10 L 353.80 440.20 L 336.60 453.80 L 338.20 487.90 L 386.90 487.60 L 389.70 488.80 L 391.80 490.90 L 392.90 493.60 L 393.00 495.10 L 392.80 497.10 L 392.00 498.90 L 390.90 500.40 L 389.20 501.70 L 387.20 502.50 L 384.80 502.80 L 339.20 503.40 L 340.40 523.00 L 345.30 581.70 L 345.70 584.40 L 346.70 587.00 L 348.20 589.30 L 350.10 591.30 L 355.20 583.00 L 360.60 575.40 L 366.30 568.40 L 372.40 562.00 L 378.90 556.10 L 384.60 551.50 L 390.60 547.30 L 396.90 543.50 L 403.50 540.00 L 410.40 536.90 L 417.70 534.20 L 424.90 532.00 L 432.50 530.20 L 440.50 528.70 L 449.00 527.70 L 457.80 527.00 L 468.80 526.80 L 457.80 448.40 L 450.20 399.60 L 448.90 388.30 L 449.00 376.30 L 449.70 367.90 L 451.80 355.90 L 453.50 348.90 L 455.70 342.10 L 458.40 334.90 L 461.90 327.30 L 464.80 321.80 L 472.00 310.60 L 476.40 304.80 L 481.00 299.40 L 486.20 294.00 L 492.00 288.60 L 498.60 283.30 L 505.20 278.40 L 512.70 273.60 L 520.90 269.00 L 535.40 262.00 L 551.10 256.20 L 561.50 252.90 L 571.90 250.20 L 582.50 247.80 L 593.20 245.90 L 602.70 245.90 L 611.10 246.50 L 624.00 248.40 L 632.20 250.30 L 643.60 253.70 L 649.90 256.00 L 662.30 261.70 L 668.70 265.30 L 674.90 269.30 L 681.00 273.90 L 687.10 279.10 L 691.30 283.30 L 699.40 293.00 L 703.20 298.40 L 706.60 304.00 L 709.80 310.20 L 712.80 316.80 L 715.50 324.00 L 716.30 325.40 L 731.50 345.90 L 736.70 353.90 L 743.30 365.40 L 749.30 378.40 L 751.80 385.20 L 753.90 392.30 L 755.60 399.50 L 756.50 406.80 L 756.90 414.30 L 756.20 418.30 L 753.50 422.90 L 751.50 425.10 L 749.20 426.90 L 747.00 428.20 L 767.00 499.80 L 778.10 501.10 L 788.70 502.80 L 798.70 504.80 L 808.30 507.10 L 817.40 509.80 L 835.30 516.30 L 851.50 523.80 L 859.00 527.90 L 868.20 533.60 L 876.90 539.60 L 885.10 545.80 L 892.70 552.40 L 892.90 500.40 L 891.80 461.70 L 890.80 443.70 L 886.20 448.50 L 875.20 458.30 L 863.20 467.30 L 851.60 475.00 L 838.50 482.50 L 835.60 483.80 L 834.50 484.10 L 833.40 483.80 L 832.50 483.20 L 831.90 482.30 L 831.70 481.30 L 832.90 479.50 L 834.80 477.90 L 860.50 462.00 L 867.10 457.40 L 873.50 452.40 L 879.60 447.00 L 883.50 443.10 L 890.10 434.70 L 889.90 432.00 L 876.60 435.80 L 871.70 436.20 L 866.40 435.60 L 864.50 434.90 L 861.30 432.70 L 860.20 431.40 L 859.00 428.30 L 859.10 424.40 L 859.80 422.20 L 861.00 420.00 L 864.30 416.00 L 866.50 414.20 L 871.50 411.20 L 877.30 409.30 L 883.20 408.60 L 887.40 408.90 L 885.60 397.00 L 881.10 374.60 L 878.40 364.20 L 875.30 353.80 L 871.70 343.80 L 867.80 334.20 L 863.50 325.10 L 858.70 316.20 L 853.40 307.60 L 847.60 299.30 L 841.30 291.40 L 833.30 293.60 L 832.00 293.30 L 830.50 292.30 L 829.80 290.40 L 830.10 289.10 L 833.10 282.30 L 827.10 276.40 L 820.60 270.70 L 813.70 265.10 L 806.20 259.70 L 798.70 254.70 L 781.80 244.90 L 772.50 240.20 L 766.10 249.80 L 761.50 257.40 L 757.70 264.60 L 753.20 275.30 L 750.00 284.70 L 749.00 286.50 L 747.70 287.60 L 746.00 288.20 L 743.20 288.50 L 741.10 288.10 L 739.30 287.30 L 737.70 286.10 L 736.50 284.60 L 735.70 282.70 L 735.30 280.70 L 736.10 275.90 L 737.30 272.40 L 739.60 267.20 L 746.10 254.30 L 758.50 233.20 L 745.80 227.10 L 733.10 221.50 L 720.60 216.50 L 695.50 207.70 L 671.50 200.80 L 649.30 195.40 L 633.40 192.20 L 619.50 189.80 L 596.00 186.60 L 575.10 184.80 L 562.00 184.80 L 531.80 187.40 L 520.30 188.90 L 506.90 191.20 L 497.80 193.10 L 477.60 198.50 L 467.30 201.90 L 456.60 205.90 L 445.50 210.60 L 437.40 214.50 L 420.80 223.60 L 412.30 228.90 L 428.10 243.60 L 438.10 253.30 L 443.60 259.10 L 445.10 261.00 L 446.30 263.20 L 446.10 266.20 L 445.00 269.00 L 442.80 271.10 L 440.10 272.30 L 438.50 272.40 L 435.40 271.40 L 433.20 270.00 L 430.00 267.30 L 408.20 246.00 L 399.80 238.30 L 392.20 244.90 L 385.30 251.70 L 378.90 258.70 L 373.20 266.00 L 367.90 273.70 L 363.10 281.70 L 358.80 290.00 L 354.90 298.70 L 351.60 307.60 L 348.50 316.90 L 345.90 326.60 L 343.60 336.80 L 341.70 347.00 L 338.80 369.00 L 337.80 380.90 L 336.90 396.50 L 336.40 413.30 L 336.40 446.50 L 348.80 436.70 L 354.90 431.40 L 364.00 422.20 L 370.00 414.70 Z M 784.30 326.90 L 784.70 325.50 L 786.20 324.50 L 798.30 324.10 L 799.90 324.40 L 801.50 325.40 L 802.20 327.50 L 801.90 329.40 L 801.00 331.90 L 796.30 341.80 L 799.50 341.10 L 800.50 341.30 L 801.50 341.90 L 802.10 342.80 L 802.10 344.90 L 801.00 346.40 L 799.30 347.20 L 793.30 349.30 L 791.20 349.80 L 789.90 349.60 L 788.90 348.90 L 788.10 347.90 L 787.90 346.60 L 788.10 345.60 L 795.30 330.10 L 788.80 330.00 L 786.40 329.60 L 785.20 329.00 L 784.50 328.20 L 784.30 327.00 Z" fill="#013592" fill-rule="nonzero" node-id="34" stroke="none" target-height="406.5" target-width="556.5" target-x="336.4" target-y="184.8"></path><path d="M 767.00 499.80 L 747.00 428.20 L 751.50 425.10 L 753.50 422.90 L 756.20 418.30 L 756.90 414.30 L 756.50 406.80 L 755.60 399.50 L 753.90 392.30 L 751.80 385.20 L 749.30 378.40 L 743.30 365.40 L 736.70 353.90 L 726.80 339.30 L 715.50 324.00 L 712.80 316.80 L 709.80 310.20 L 706.60 304.00 L 703.20 298.40 L 699.40 293.00 L 691.30 283.30 L 687.10 279.10 L 681.00 273.90 L 674.90 269.30 L 668.70 265.30 L 662.30 261.70 L 649.90 256.00 L 637.70 251.80 L 624.00 248.40 L 617.30 247.30 L 606.90 246.10 L 593.20 245.90 L 580.70 248.20 L 569.20 250.80 L 558.70 253.70 L 549.00 256.80 L 539.20 260.50 L 530.30 264.30 L 522.20 268.20 L 514.80 272.30 L 507.50 276.90 L 500.80 281.50 L 494.80 286.20 L 489.30 291.00 L 479.30 301.30 L 471.40 311.40 L 466.70 318.50 L 462.80 325.50 L 459.60 332.20 L 454.50 345.70 L 451.30 358.30 L 449.60 369.20 L 448.80 382.60 L 449.30 393.20 L 457.80 448.40 L 468.80 526.80 L 456.30 527.10 L 446.00 528.00 L 436.40 529.40 L 427.30 531.40 L 418.70 533.90 L 410.60 536.90 L 402.50 540.50 L 394.90 544.60 L 387.70 549.20 L 380.90 554.40 L 374.40 560.00 L 368.40 566.20 L 362.80 572.70 L 357.50 579.70 L 352.60 587.20 L 347.90 595.30 L 343.50 603.90 L 339.50 613.20 L 336.00 622.30 L 332.80 632.00 L 329.90 642.20 L 327.30 653.00 L 324.90 664.40 L 322.90 676.50 L 321.10 690.50 L 319.60 705.20 L 318.50 720.80 L 317.80 737.20 L 317.60 754.50 L 317.80 775.00 L 318.40 788.60 L 319.10 797.10 L 320.30 806.60 L 320.70 813.20 L 321.90 814.70 L 323.40 815.20 L 325.20 814.50 L 325.90 813.60 L 326.50 812.00 L 326.70 809.90 L 324.50 790.40 L 323.60 771.20 L 323.70 739.30 L 324.40 722.20 L 325.50 706.40 L 326.90 692.00 L 328.90 677.20 L 331.30 663.70 L 333.90 651.30 L 336.70 640.10 L 340.20 628.70 L 343.90 618.30 L 347.70 609.00 L 351.80 600.50 L 356.40 592.10 L 361.10 584.60 L 366.00 577.80 L 370.90 571.70 L 376.40 565.90 L 381.90 560.70 L 387.50 556.10 L 393.20 552.10 L 399.20 548.40 L 405.20 545.10 L 411.30 542.30 L 417.40 540.00 L 425.80 537.40 L 434.10 535.30 L 442.50 533.90 L 450.90 532.90 L 459.20 532.40 L 467.40 532.20 L 469.40 532.40 L 476.60 583.00 L 477.00 584.70 L 477.60 585.90 L 478.70 586.80 L 481.00 587.50 L 483.80 587.90 L 524.30 590.20 L 505.10 602.40 L 486.10 614.90 L 448.50 640.70 L 447.00 615.10 L 442.70 579.10 L 442.30 577.90 L 440.60 576.40 L 439.40 576.20 L 438.20 576.40 L 437.20 577.10 L 436.60 578.20 L 436.40 579.40 L 439.40 599.60 L 441.50 618.70 L 442.20 629.50 L 442.40 641.50 L 442.10 642.80 L 441.20 644.60 L 439.20 646.90 L 435.80 650.40 L 419.50 664.80 L 407.10 676.80 L 401.20 683.40 L 395.70 690.40 L 392.50 695.30 L 389.70 700.40 L 387.40 705.50 L 385.00 713.50 L 384.20 721.70 L 384.40 725.40 L 385.10 728.30 L 386.10 730.70 L 387.50 732.90 L 389.10 734.50 L 390.90 735.80 L 395.00 737.20 L 397.20 737.40 L 400.10 737.10 L 403.10 736.30 L 406.40 734.90 L 409.90 732.90 L 416.30 727.80 L 419.60 724.40 L 423.00 720.50 L 427.10 715.00 L 431.10 708.70 L 435.00 701.60 L 438.30 694.20 L 441.30 686.30 L 443.90 677.70 L 445.40 671.20 L 446.70 664.50 L 448.40 649.80 L 451.50 646.60 L 455.10 643.70 L 473.60 630.40 L 489.10 619.90 L 521.60 599.30 L 535.40 591.10 L 545.40 585.70 L 550.50 591.90 L 556.90 599.00 L 560.80 602.00 L 562.10 602.40 L 563.20 602.20 L 564.10 601.60 L 564.70 600.60 L 564.90 599.60 L 564.60 598.50 L 563.30 596.80 L 554.60 587.90 L 550.40 583.10 L 563.10 576.80 L 573.00 583.90 L 576.30 585.60 L 580.80 587.20 L 585.80 588.60 L 599.80 590.90 L 603.30 591.40 L 611.20 591.50 L 610.00 597.70 L 604.90 615.70 L 596.50 613.40 L 588.60 610.40 L 586.80 610.50 L 585.90 611.10 L 585.30 612.00 L 585.10 613.10 L 585.40 614.10 L 586.00 615.10 L 587.30 616.00 L 593.40 618.40 L 603.30 621.00 L 600.00 635.90 L 596.40 649.60 L 592.80 662.20 L 588.90 673.70 L 584.60 685.50 L 580.20 696.30 L 575.70 706.10 L 571.10 715.10 L 561.10 732.40 L 551.20 746.60 L 544.10 755.50 L 537.30 763.10 L 530.60 769.70 L 523.60 776.00 L 516.90 781.30 L 510.70 785.80 L 498.20 793.60 L 484.70 800.30 L 468.50 806.90 L 466.20 808.10 L 465.20 809.00 L 465.00 809.80 L 465.20 810.90 L 465.80 811.90 L 466.80 812.60 L 468.00 812.80 L 476.50 810.70 L 482.90 808.40 L 489.90 805.40 L 498.60 801.00 L 510.70 793.50 L 517.70 788.50 L 524.30 783.20 L 531.30 777.00 L 538.70 769.70 L 543.80 764.00 L 554.50 750.80 L 565.00 735.50 L 570.10 727.10 L 575.10 717.80 L 580.20 707.70 L 584.70 697.70 L 589.10 686.90 L 593.50 675.00 L 597.60 662.20 L 611.60 614.00 L 621.50 616.90 L 632.10 618.50 L 639.00 618.80 L 646.10 618.60 L 652.80 618.00 L 659.00 617.00 L 664.80 615.70 L 672.50 613.40 L 679.50 610.70 L 686.00 607.50 L 692.10 603.90 L 697.70 600.00 L 702.80 595.90 L 712.00 587.00 L 715.80 582.50 L 721.10 575.60 L 725.30 569.10 L 731.60 557.20 L 733.80 552.10 L 736.10 545.50 L 735.90 542.90 L 733.60 531.60 L 736.60 529.80 L 744.80 526.10 L 758.00 521.60 L 768.70 518.30 L 769.80 517.30 L 770.60 516.00 L 770.80 514.40 L 769.00 506.10 L 777.60 506.40 L 785.30 507.10 L 793.20 508.20 L 801.20 509.90 L 809.40 512.00 L 817.30 514.60 L 825.30 517.50 L 833.30 521.00 L 841.30 524.90 L 849.40 529.30 L 857.20 534.00 L 864.80 539.20 L 872.50 544.80 L 880.00 550.90 L 887.60 557.50 L 894.70 564.30 L 901.60 571.50 L 908.40 579.10 L 915.00 587.30 L 921.40 595.90 L 927.40 604.60 L 933.20 613.80 L 938.60 623.40 L 943.80 633.50 L 948.70 644.00 L 953.00 654.60 L 957.00 665.60 L 960.70 677.00 L 963.90 688.90 L 966.80 701.30 L 969.10 713.60 L 970.90 726.30 L 972.20 739.40 L 973.00 753.10 L 973.50 771.00 L 973.90 771.90 L 975.10 773.00 L 976.30 773.30 L 977.50 772.90 L 978.30 772.20 L 979.20 770.70 L 979.20 760.80 L 976.30 732.20 L 974.60 720.90 L 970.40 698.40 L 965.50 678.30 L 962.50 668.10 L 955.00 646.40 L 950.60 635.60 L 945.60 624.70 L 940.00 613.60 L 935.50 605.60 L 925.30 589.60 L 919.60 581.80 L 913.60 574.20 L 907.20 566.80 L 900.30 559.60 L 893.00 552.60 L 885.40 546.10 L 877.20 539.80 L 868.50 533.80 L 859.20 528.10 L 851.70 523.90 L 843.80 520.00 L 835.50 516.40 L 826.70 513.00 L 817.50 509.80 L 808.40 507.20 L 798.80 504.80 L 788.80 502.80 L 778.10 501.10 L 767.00 499.80 Z M 397.20 731.40 L 394.00 730.70 L 391.80 728.80 L 390.90 726.90 L 390.30 724.60 L 390.10 721.70 L 390.50 717.40 L 391.50 712.80 L 393.20 708.10 L 397.90 698.80 L 401.10 694.00 L 406.20 687.20 L 411.80 680.60 L 417.70 674.30 L 429.10 663.60 L 441.50 653.60 L 442.10 653.80 L 440.90 662.20 L 437.80 676.90 L 435.90 683.20 L 432.90 691.60 L 429.70 698.90 L 426.30 705.10 L 422.50 711.10 L 418.80 716.10 L 415.30 720.10 L 411.40 723.90 L 407.90 726.70 L 404.90 728.70 L 401.60 730.30 L 399.10 731.20 L 397.20 731.40 Z M 605.10 585.60 L 599.90 585.40 L 593.90 584.50 L 585.70 582.40 L 581.40 580.90 L 573.30 576.80 L 569.40 574.10 L 565.80 571.10 L 562.50 567.70 L 559.50 563.80 L 557.60 560.70 L 554.60 553.50 L 552.60 546.20 L 551.40 543.20 L 547.20 536.10 L 541.00 527.70 L 536.20 520.10 L 533.10 513.30 L 532.10 509.60 L 531.40 505.60 L 531.30 499.00 L 532.70 495.10 L 533.90 493.40 L 537.20 503.00 L 539.00 506.90 L 541.00 510.50 L 546.50 518.00 L 554.70 527.80 L 556.40 529.30 L 558.50 530.10 L 559.60 529.80 L 560.60 529.10 L 561.20 528.20 L 561.50 527.00 L 561.00 526.00 L 559.10 523.70 L 550.30 513.50 L 546.90 508.70 L 543.00 501.50 L 541.30 497.50 L 540.10 493.30 L 539.30 488.90 L 539.00 484.10 L 539.20 480.60 L 542.00 487.10 L 544.30 491.70 L 548.50 498.40 L 555.60 508.10 L 558.10 510.40 L 559.70 510.80 L 561.60 510.10 L 562.20 509.30 L 562.50 508.30 L 562.10 506.90 L 560.50 504.40 L 552.60 493.90 L 549.60 489.10 L 546.20 482.10 L 543.60 474.20 L 542.90 469.90 L 542.60 465.40 L 542.80 463.30 L 545.00 464.20 L 546.30 465.40 L 554.30 474.50 L 559.20 479.60 L 565.00 484.90 L 579.20 496.20 L 606.50 514.40 L 610.50 517.40 L 613.30 519.90 L 615.50 522.50 L 616.90 525.20 L 617.90 528.10 L 618.40 531.70 L 618.70 540.80 L 618.20 552.90 L 616.90 563.00 L 612.00 585.10 L 605.10 585.60 Z M 708.70 441.10 L 728.50 536.80 L 729.40 541.40 L 729.20 542.40 L 726.30 546.40 L 722.80 549.90 L 711.80 558.90 L 696.90 568.90 L 688.40 573.80 L 679.50 578.40 L 670.30 582.60 L 663.90 585.00 L 651.30 588.80 L 644.90 590.20 L 638.70 590.90 L 632.70 591.20 L 627.30 591.00 L 623.40 590.40 L 621.10 589.60 L 619.10 588.40 L 617.30 586.90 L 622.50 565.00 L 623.40 559.80 L 624.50 548.80 L 624.70 542.40 L 624.50 535.00 L 623.80 529.40 L 623.10 525.90 L 621.00 520.60 L 618.00 516.20 L 616.10 514.20 L 608.70 508.70 L 593.00 498.60 L 578.70 488.00 L 570.10 480.70 L 561.30 472.40 L 548.90 460.00 L 546.00 458.00 L 544.40 457.30 L 541.60 457.20 L 540.30 457.60 L 539.00 458.50 L 537.90 460.20 L 537.00 463.40 L 536.40 470.00 L 534.30 474.40 L 533.30 478.00 L 533.00 486.40 L 530.60 483.90 L 526.90 476.40 L 524.60 470.30 L 520.20 456.70 L 516.40 442.50 L 513.80 430.20 L 512.80 422.20 L 513.00 418.00 L 513.60 414.70 L 514.50 412.10 L 515.70 409.60 L 517.10 407.70 L 518.70 406.40 L 522.20 404.80 L 524.00 404.60 L 525.50 404.90 L 527.00 405.80 L 528.50 407.20 L 530.50 410.00 L 534.20 417.70 L 538.20 430.50 L 540.40 439.70 L 541.30 440.90 L 542.70 441.50 L 544.90 440.50 L 550.50 437.20 L 553.90 434.60 L 560.50 428.40 L 565.90 421.60 L 570.70 413.30 L 572.90 408.20 L 574.80 403.00 L 576.40 397.10 L 581.20 369.00 L 582.40 365.40 L 583.80 362.30 L 585.80 359.40 L 588.40 356.60 L 596.10 350.60 L 624.50 332.80 L 629.80 329.10 L 634.10 325.50 L 637.60 322.00 L 640.80 318.20 L 645.30 311.00 L 647.70 305.70 L 649.20 301.10 L 651.20 293.20 L 659.10 295.60 L 666.50 298.40 L 673.50 301.50 L 680.00 305.00 L 686.40 308.80 L 692.40 312.90 L 703.20 321.70 L 709.90 328.10 L 715.90 334.70 L 721.40 341.40 L 726.40 348.50 L 730.90 355.40 L 734.80 362.20 L 741.40 375.80 L 743.90 382.00 L 747.80 394.00 L 750.00 403.90 L 750.70 410.80 L 749.90 414.60 L 748.90 416.30 L 745.50 419.90 L 742.90 421.80 L 734.90 426.00 L 715.10 434.50 L 711.80 436.50 L 710.00 438.10 L 709.10 439.60 L 708.70 441.10 Z" fill="#000000" fill-rule="nonzero" node-id="36" stroke="none" target-height="569.30005" target-width="661.6" target-x="317.6" target-y="245.9"></path><path d="M 868.70 724.40 L 868.40 720.90 L 867.70 718.30 L 866.40 715.00 L 863.60 710.50 L 859.10 705.50 L 856.10 703.00 L 848.40 698.00 L 837.60 693.30 L 831.70 691.30 L 824.50 689.50 L 816.10 687.70 L 807.60 686.40 L 797.80 685.40 L 786.40 684.60 L 786.10 682.10 L 786.00 671.90 L 786.30 662.30 L 787.30 652.20 L 788.70 642.00 L 792.50 622.10 L 798.80 597.00 L 803.30 580.90 L 802.50 579.10 L 800.70 578.40 L 800.10 578.70 L 799.20 579.70 L 797.90 581.90 L 794.30 591.50 L 790.30 605.40 L 788.40 613.50 L 784.70 631.20 L 781.80 649.30 L 780.90 657.90 L 780.00 673.60 L 780.10 684.50 L 760.00 685.70 L 750.20 686.70 L 725.20 690.20 L 710.80 692.80 L 690.90 697.40 L 680.40 700.20 L 659.50 707.00 L 648.90 711.00 L 638.50 715.50 L 628.30 720.40 L 618.30 725.90 L 611.00 730.30 L 597.10 740.10 L 590.60 745.50 L 584.40 751.20 L 578.50 757.30 L 573.10 763.70 L 568.00 770.50 L 567.40 772.30 L 567.60 773.50 L 568.30 774.40 L 569.20 775.00 L 570.30 775.30 L 576.80 767.80 L 582.40 762.00 L 589.00 755.90 L 597.90 748.50 L 604.30 743.60 L 620.00 732.90 L 628.60 727.80 L 638.20 722.60 L 649.00 717.40 L 665.70 710.40 L 685.00 703.80 L 694.90 701.10 L 705.40 698.50 L 716.50 696.20 L 728.40 694.30 L 740.10 692.70 L 752.50 691.60 L 765.60 690.90 L 780.90 690.60 L 782.80 698.50 L 785.00 705.30 L 787.40 711.20 L 790.40 716.90 L 793.60 721.70 L 796.90 725.90 L 800.50 729.80 L 804.20 733.10 L 811.70 738.30 L 819.00 741.90 L 824.30 743.80 L 828.90 745.00 L 836.40 746.20 L 843.00 746.20 L 850.40 745.00 L 854.30 743.80 L 858.00 742.20 L 861.40 740.00 L 863.40 738.30 L 866.60 733.90 L 867.70 731.40 L 868.40 728.50 L 868.70 724.40 Z M 839.30 740.40 L 834.70 740.10 L 830.00 739.30 L 825.20 738.00 L 820.60 736.20 L 816.00 733.90 L 811.50 731.10 L 807.30 727.90 L 803.30 724.40 L 799.60 720.50 L 796.30 716.30 L 793.40 711.70 L 791.00 706.90 L 788.40 699.20 L 787.20 690.90 L 797.70 691.10 L 804.60 691.70 L 819.70 694.20 L 827.60 696.10 L 835.30 698.60 L 844.90 702.70 L 849.10 705.10 L 853.00 707.80 L 856.30 710.70 L 859.00 713.90 L 860.60 716.40 L 861.70 719.20 L 862.50 722.00 L 862.70 725.10 L 862.50 727.80 L 861.90 730.00 L 860.90 731.90 L 858.00 735.10 L 853.30 737.90 L 847.00 739.70 L 839.30 740.40 Z" fill="#000000" fill-rule="nonzero" node-id="38" stroke="none" target-height="196.89996" target-width="301.3" target-x="567.4" target-y="578.4"></path><path d="M 407.50 387.20 L 406.40 387.60 L 404.50 389.00 L 396.50 396.30 L 392.40 399.30 L 386.00 402.80 L 382.00 404.50 L 382.70 398.00 L 382.50 395.70 L 381.20 392.40 L 379.60 390.70 L 377.80 389.50 L 375.90 388.80 L 372.40 388.30 L 366.30 389.10 L 361.00 391.20 L 356.70 394.20 L 353.30 397.90 L 351.20 401.90 L 350.50 405.60 L 350.70 407.60 L 351.90 410.50 L 353.50 412.10 L 355.30 413.30 L 357.40 414.10 L 361.60 414.80 L 370.00 414.70 L 363.10 423.20 L 352.50 433.60 L 338.30 445.10 L 313.40 463.30 L 307.50 468.30 L 306.20 470.50 L 306.50 471.70 L 307.30 472.80 L 308.50 473.40 L 311.10 473.40 L 312.40 472.90 L 313.40 472.00 L 315.10 469.70 L 318.40 467.00 L 340.90 450.50 L 354.80 439.30 L 361.50 433.20 L 367.60 427.10 L 371.40 422.80 L 378.40 413.10 L 380.20 411.80 L 391.80 406.50 L 395.40 404.30 L 402.50 398.80 L 405.50 395.90 L 409.60 391.00 L 409.90 389.60 L 409.70 388.70 L 408.50 387.40 L 407.50 387.20 Z M 373.40 407.50 L 364.10 409.30 L 359.00 408.40 L 357.00 407.20 L 356.40 405.50 L 357.30 402.90 L 360.10 399.10 L 362.10 397.30 L 364.80 395.80 L 369.00 394.50 L 373.70 394.40 L 375.80 395.20 L 376.70 397.00 L 376.30 402.00 L 375.20 405.60 L 374.30 407.00 L 373.40 407.50 Z" fill="#000000" fill-rule="nonzero" node-id="40" stroke="none" target-height="86.19998" target-width="103.69998" target-x="306.2" target-y="387.2"></path><path d="M 930.20 397.80 L 929.20 398.20 L 926.80 400.20 L 916.20 409.50 L 911.20 413.30 L 905.90 416.90 L 899.80 420.30 L 898.20 416.60 L 895.40 412.90 L 891.60 410.30 L 889.40 409.40 L 886.60 408.80 L 883.20 408.60 L 880.20 408.70 L 874.40 410.10 L 868.90 412.60 L 864.30 416.00 L 861.00 420.00 L 859.80 422.20 L 859.10 424.40 L 858.80 426.60 L 859.00 428.30 L 860.20 431.40 L 862.70 433.90 L 864.50 434.90 L 868.80 436.10 L 874.30 436.10 L 883.30 434.10 L 892.30 431.30 L 889.30 435.90 L 885.90 440.30 L 882.10 444.60 L 873.70 452.30 L 862.40 460.70 L 855.80 465.10 L 838.60 475.50 L 832.90 479.40 L 831.70 481.30 L 831.90 482.30 L 832.50 483.20 L 833.40 483.80 L 834.50 484.10 L 835.70 483.80 L 839.00 482.20 L 853.70 473.70 L 866.40 465.00 L 879.20 455.00 L 888.60 446.10 L 894.40 439.10 L 896.80 435.50 L 898.40 432.20 L 899.90 428.00 L 900.80 427.00 L 913.00 419.30 L 918.50 415.20 L 926.30 408.30 L 931.10 403.50 L 931.90 402.60 L 932.60 400.40 L 931.90 398.60 L 930.20 397.80 Z M 894.00 423.60 L 888.30 426.20 L 882.60 428.30 L 875.00 430.00 L 871.40 430.20 L 868.60 430.00 L 866.70 429.40 L 865.60 428.70 L 865.00 427.80 L 864.80 426.60 L 865.10 425.10 L 866.10 423.10 L 867.60 421.20 L 869.70 419.20 L 872.30 417.40 L 875.30 415.90 L 879.90 414.80 L 884.80 414.70 L 887.50 415.30 L 890.70 416.70 L 893.10 419.10 L 893.80 420.70 L 894.00 423.60 Z" fill="#000000" fill-rule="nonzero" node-id="42" stroke="none" target-height="86.30002" target-width="100.89996" target-x="831.7" target-y="397.8"></path><path d="M 830.80 266.70 L 836.70 265.90 L 843.40 265.60 L 843.40 266.10 L 834.60 279.60 L 831.30 285.90 L 830.20 288.70 L 829.80 290.40 L 830.50 292.30 L 832.00 293.30 L 833.30 293.60 L 839.80 291.80 L 849.50 288.60 L 852.00 287.40 L 852.80 286.50 L 853.20 285.20 L 852.90 284.10 L 852.30 283.20 L 851.40 282.60 L 849.30 282.50 L 838.10 286.10 L 842.80 277.60 L 851.40 265.60 L 852.60 263.50 L 853.00 262.10 L 852.80 261.00 L 852.10 260.00 L 851.10 259.40 L 849.90 259.20 L 841.80 259.80 L 835.20 260.60 L 829.80 261.80 L 828.50 263.00 L 828.20 264.70 L 829.10 266.20 L 830.80 266.70 Z" fill="#000000" fill-rule="nonzero" node-id="44" stroke="none" target-height="34.399994" target-width="25" target-x="828.2" target-y="259.2"></path><path d="M 793.00 330.10 L 795.30 330.10 L 788.70 343.80 L 787.90 346.60 L 788.10 347.90 L 788.90 348.90 L 789.90 349.60 L 791.20 349.80 L 796.30 348.30 L 801.00 346.40 L 801.70 345.70 L 802.30 343.90 L 802.10 342.80 L 801.50 341.90 L 800.50 341.30 L 799.50 341.10 L 796.30 341.80 L 801.00 331.90 L 801.90 329.40 L 802.20 327.50 L 802.00 326.20 L 801.50 325.40 L 799.90 324.40 L 798.30 324.10 L 787.60 324.40 L 785.30 324.90 L 784.70 325.50 L 784.30 326.90 L 784.50 328.20 L 785.20 329.00 L 786.40 329.60 L 788.80 330.00 L 793.00 330.10 Z" fill="#000000" fill-rule="nonzero" node-id="46" stroke="none" target-height="25.699982" target-width="18" target-x="784.3" target-y="324.1"></path><path d="M 588.00 447.80 L 581.40 448.70 L 577.50 449.80 L 576.30 451.20 L 576.20 452.20 L 576.40 453.30 L 577.00 454.20 L 578.00 454.80 L 579.10 455.00 L 585.40 454.00 L 589.50 453.80 L 594.40 454.10 L 598.60 454.80 L 602.40 455.90 L 606.00 457.30 L 612.00 460.80 L 615.90 463.80 L 623.60 471.50 L 625.50 473.20 L 626.60 473.60 L 627.70 473.40 L 628.60 472.80 L 629.20 471.90 L 629.40 470.80 L 629.10 469.60 L 627.60 467.20 L 625.60 464.60 L 622.50 461.40 L 618.80 458.40 L 614.00 455.20 L 606.80 451.60 L 602.50 450.10 L 598.10 448.90 L 593.30 448.20 L 588.00 447.80 Z" fill="#000000" fill-rule="nonzero" node-id="48" stroke="none" target-height="25.800018" target-width="53.200012" target-x="576.2" target-y="447.8"></path><path d="M 522.90 412.90 L 521.70 413.10 L 520.80 413.80 L 520.10 414.70 L 520.10 416.90 L 527.20 441.40 L 524.70 443.50 L 523.00 445.60 L 522.60 446.90 L 522.40 449.30 L 523.80 455.70 L 525.90 461.40 L 526.40 462.20 L 527.70 463.10 L 529.70 463.10 L 530.60 462.40 L 531.30 461.50 L 531.50 460.30 L 528.30 450.30 L 528.00 448.70 L 528.30 447.80 L 528.90 447.00 L 532.50 444.50 L 533.10 443.60 L 533.40 442.50 L 530.70 432.20 L 525.60 414.90 L 524.50 413.50 L 522.90 412.90 Z" fill="#000000" fill-rule="nonzero" node-id="50" stroke="none" target-height="50.200012" target-width="13.300049" target-x="520.1" target-y="412.9"></path><path d="M 661.90 435.00 L 660.70 435.20 L 659.80 435.90 L 656.80 439.00 L 655.10 440.00 L 653.10 440.60 L 650.00 440.90 L 647.60 440.70 L 643.80 439.50 L 641.30 438.10 L 634.50 432.60 L 633.20 432.30 L 632.20 432.50 L 630.70 434.00 L 630.50 435.00 L 630.80 436.30 L 632.10 438.20 L 633.80 440.00 L 639.00 443.70 L 642.10 445.20 L 645.40 446.30 L 648.80 446.80 L 652.40 446.50 L 655.40 445.90 L 660.10 443.80 L 663.10 441.30 L 664.70 438.70 L 664.60 436.70 L 663.90 435.80 L 663.00 435.20 L 661.90 435.00 Z" fill="#000000" fill-rule="nonzero" node-id="52" stroke="none" target-height="14.5" target-width="34.200012" target-x="630.5" target-y="432.3"></path><path d="M 607.10 414.60 L 610.30 414.30 L 612.80 413.70 L 614.90 412.80 L 616.80 411.50 L 619.50 408.60 L 620.90 406.10 L 621.70 403.90 L 622.30 400.80 L 622.00 399.30 L 621.40 398.30 L 620.50 397.70 L 619.40 397.50 L 618.10 397.80 L 617.40 398.30 L 616.50 400.00 L 615.50 403.90 L 613.60 406.40 L 611.90 407.60 L 610.00 408.30 L 607.20 408.60 L 602.80 407.90 L 597.80 405.80 L 596.70 406.10 L 595.80 406.70 L 595.20 407.60 L 595.00 408.70 L 595.70 410.70 L 596.70 411.50 L 600.50 413.30 L 607.10 414.60 Z" fill="#000000" fill-rule="nonzero" node-id="54" stroke="none" target-height="17.100006" target-width="27.299988" target-x="595" target-y="397.5"></path><path d="M 682.60 375.70 L 681.40 375.90 L 680.60 376.50 L 677.80 382.70 L 676.40 384.10 L 673.70 385.60 L 672.10 385.80 L 670.10 385.50 L 668.60 384.70 L 665.20 381.90 L 663.90 381.60 L 662.80 381.80 L 662.00 382.40 L 661.10 384.40 L 661.40 385.60 L 662.50 387.30 L 664.00 388.80 L 666.30 390.20 L 669.90 391.50 L 672.00 391.80 L 674.40 391.50 L 676.70 390.80 L 678.80 389.60 L 682.30 386.50 L 684.70 382.60 L 685.50 378.80 L 685.30 377.60 L 684.70 376.60 L 683.80 375.90 L 682.60 375.70 Z" fill="#000000" fill-rule="nonzero" node-id="56" stroke="none" target-height="16.099976" target-width="24.400024" target-x="661.1" target-y="375.7"></path><path d="M 665.60 342.90 L 668.80 343.00 L 672.80 344.60 L 676.30 347.30 L 678.20 349.60 L 679.00 350.10 L 679.90 350.30 L 681.10 350.00 L 682.00 349.40 L 682.60 348.50 L 682.90 347.40 L 682.60 346.00 L 681.40 344.20 L 679.80 342.60 L 675.10 339.40 L 672.20 338.30 L 667.90 337.20 L 664.30 338.00 L 662.90 339.20 L 662.70 340.30 L 663.00 341.40 L 663.60 342.30 L 664.50 342.80 L 665.60 342.90 Z" fill="#000000" fill-rule="nonzero" node-id="58" stroke="none" target-height="13.099976" target-width="20.200012" target-x="662.7" target-y="337.2"></path><path d="M 595.50 423.40 L 600.80 424.00 L 601.90 423.90 L 602.90 423.30 L 603.70 422.40 L 603.90 421.30 L 603.50 419.50 L 601.50 418.40 L 590.30 416.60 L 588.30 416.80 L 586.80 417.80 L 586.30 419.50 L 586.80 421.20 L 588.80 422.30 L 595.50 423.40 Z" fill="#000000" fill-rule="nonzero" node-id="60" stroke="none" target-height="7.399994" target-width="17.600037" target-x="586.3" target-y="416.6"></path><path d="M 693.80 382.10 L 693.00 382.20 L 691.70 383.40 L 688.30 389.70 L 687.80 391.10 L 688.00 392.20 L 688.60 393.20 L 689.50 393.80 L 690.60 394.10 L 691.50 393.90 L 692.70 392.90 L 696.00 386.40 L 696.50 384.60 L 696.20 383.60 L 695.70 382.80 L 693.80 382.10 Z" fill="#000000" fill-rule="nonzero" node-id="62" stroke="none" target-height="12" target-width="8.700012" target-x="687.8" target-y="382.1"></path></svg>