<?xml version="1.0" standalone="no"?><!DOCTYPE svg PUBLIC "-//W3C//DTD SVG 1.1//EN" "http://www.w3.org/Graphics/SVG/1.1/DTD/svg11.dtd"><svg t="1742579000447" class="icon" viewBox="0 0 1024 1024" version="1.1" xmlns="http://www.w3.org/2000/svg" p-id="4264" width="512" height="512" xmlns:xlink="http://www.w3.org/1999/xlink"><path d="M379.306667 147.242667C258.56 146.069333 277.333333 277.333333 277.333333 277.333333c149.333333 21.333333 128-128 128-128a197.973333 197.973333 0 0 0-26.026666-2.090666z m286.72 0A197.973333 197.973333 0 0 0 640 149.333333s-21.333333 149.333333 128 128c0 0 18.752-131.264-101.973333-130.090666zM148.032 235.669333s-92.074667 141.013333 73.706667 199.829334c136.213333 64.810667 174.826667-86.613333 174.826666-86.613334-87.445333-50.218667-132.650667-9.386667-155.008 31.530667 8.917333-46.506667 0.981333-110.72-93.525333-144.746667z m739.946667 0c-94.506667 34.005333-102.464 98.24-93.546667 144.746667-22.336-40.938667-67.541333-81.749333-154.986667-31.530667 0 0 38.613333 151.424 174.826667 86.613334 165.781333-58.816 73.706667-199.829333 73.706667-199.829334zM362.666667 490.666667c-113.450667 7.338667-126.293333 72.042667-122.88 113.834666-12.757333-46.250667-50.602667-118.357333-165.12-90.24 0 0 1.28 168.405333 171.946666 125.738667 149.333333-21.333333 116.053333-149.333333 116.053334-149.333333z m320 0s-42.666667 128 106.666666 149.333333c170.666667 42.666667 171.946667-125.76 171.946667-125.76-103.658667-25.429333-144.832 31.594667-161.194667 76.970667C801.92 550.186667 784.213333 497.237333 682.666667 490.666667z m-268.117334 132.288c-97.557333 3.84-120.981333 58.496-123.52 103.893333a32 32 0 0 0-6.784 1.322667c-33.258667-30.016-86.976-50.816-158.613333 11.818666 0 0 66.88 109.290667 165.290667 60.8 26.944 23.381333 61.098667 42.026667 97.706666 55.957334-47.829333 22.314667-77.930667 46.250667-77.930666 46.250666a32 32 0 1 0 39.936 50.005334s74.026667-57.642667 167.36-68.096c93.312 10.453333 167.338667 68.096 167.338666 68.096a32 32 0 1 0 39.957334-50.005334s-30.08-23.936-77.909334-46.250666c36.608-13.909333 70.741333-32.576 97.706667-55.957334 98.410667 48.469333 165.290667-60.8 165.290667-60.8-71.658667-62.634667-125.418667-41.834667-158.677334-11.818666a32 32 0 0 0-6.784-1.344c-2.517333-45.376-25.92-100.010667-123.456-103.872 0 0-22.293333 104.746667 53.76 147.584-42.816 25.045333-102.826667 45.824-152.170666 49.493333-1.706667 0.128-3.349333 0.405333-5.056 0.554667-1.706667-0.149333-3.328-0.426667-5.034667-0.554667-49.344-3.669333-109.397333-24.448-152.213333-49.493333 76.032-42.858667 53.802667-147.584 53.802666-147.584z" p-id="4265" fill="#dbdbdb"></path></svg>